<mxfile host="Electron" modified="2024-11-18T15:28:48.663Z" agent="Mozilla/5.0 (Windows NT 10.0; Win64; x64) AppleWebKit/537.36 (KHTML, like Gecko) draw.io/21.3.7 Chrome/112.0.5615.204 Electron/24.5.0 Safari/537.36" version="21.3.7" etag="D6-2T7CNaJDPBZmWpc9Q" type="device" pages="3">
  <diagram id="hyS-Di6CrhPwkYetJnE0" name="sjf_flowchart">
    <mxGraphModel dx="1418" dy="820" grid="1" gridSize="10" guides="1" tooltips="1" connect="1" arrows="1" fold="1" page="1" pageScale="1" pageWidth="2000" pageHeight="1125" math="0" shadow="0">
      <root>
        <mxCell id="0" />
        <mxCell id="1" parent="0" />
        <mxCell id="6" style="edgeStyle=none;html=1;" parent="1" source="2" target="7" edge="1">
          <mxGeometry relative="1" as="geometry">
            <mxPoint x="600" y="160" as="targetPoint" />
          </mxGeometry>
        </mxCell>
        <mxCell id="2" value="Queue" style="strokeWidth=2;html=1;shape=mxgraph.flowchart.database;whiteSpace=wrap;" parent="1" vertex="1">
          <mxGeometry x="440" y="120" width="80" height="80" as="geometry" />
        </mxCell>
        <mxCell id="4" style="edgeStyle=none;html=1;" parent="1" source="3" target="2" edge="1">
          <mxGeometry relative="1" as="geometry" />
        </mxCell>
        <mxCell id="3" value="Detirmine&lt;br&gt;Burst Time" style="strokeWidth=2;html=1;shape=mxgraph.flowchart.decision;whiteSpace=wrap;" parent="1" vertex="1">
          <mxGeometry x="240" y="120" width="80" height="80" as="geometry" />
        </mxCell>
        <mxCell id="12" style="edgeStyle=none;html=1;entryX=0.5;entryY=1;entryDx=0;entryDy=0;entryPerimeter=0;" parent="1" source="7" target="2" edge="1">
          <mxGeometry relative="1" as="geometry">
            <mxPoint x="540" y="300" as="targetPoint" />
            <Array as="points">
              <mxPoint x="760" y="240" />
              <mxPoint x="480" y="240" />
            </Array>
          </mxGeometry>
        </mxCell>
        <mxCell id="18" style="edgeStyle=none;html=1;" parent="1" source="7" target="14" edge="1">
          <mxGeometry relative="1" as="geometry" />
        </mxCell>
        <mxCell id="21" style="edgeStyle=none;html=1;entryX=0.5;entryY=0;entryDx=0;entryDy=0;entryPerimeter=0;exitX=0.5;exitY=0;exitDx=0;exitDy=0;" parent="1" source="14" target="2" edge="1">
          <mxGeometry relative="1" as="geometry">
            <Array as="points">
              <mxPoint x="920" y="80" />
              <mxPoint x="480" y="80" />
            </Array>
          </mxGeometry>
        </mxCell>
        <mxCell id="7" value="Process in&lt;br&gt;&lt;div style=&quot;&quot;&gt;&lt;span style=&quot;background-color: initial;&quot;&gt;Excecution&lt;/span&gt;&lt;/div&gt;" style="verticalLabelPosition=middle;verticalAlign=middle;html=1;shape=process;whiteSpace=wrap;rounded=1;size=0;arcSize=6;labelPosition=center;align=center;" parent="1" vertex="1">
          <mxGeometry x="720" y="120" width="80" height="80" as="geometry" />
        </mxCell>
        <mxCell id="10" style="edgeStyle=none;html=1;entryX=0;entryY=0.5;entryDx=0;entryDy=0;entryPerimeter=0;" parent="1" source="16" target="3" edge="1">
          <mxGeometry relative="1" as="geometry">
            <mxPoint x="120" y="160" as="sourcePoint" />
          </mxGeometry>
        </mxCell>
        <mxCell id="13" value="Process enters waiting state" style="text;html=1;strokeColor=none;fillColor=none;align=center;verticalAlign=middle;whiteSpace=wrap;rounded=0;" parent="1" vertex="1">
          <mxGeometry x="540" y="220" width="160" height="20" as="geometry" />
        </mxCell>
        <mxCell id="14" value="" style="ellipse;html=1;shape=endState;fillColor=#FFFFFF;strokeColor=default;" parent="1" vertex="1">
          <mxGeometry x="880" y="120" width="80" height="80" as="geometry" />
        </mxCell>
        <mxCell id="16" value="" style="strokeWidth=2;html=1;shape=mxgraph.flowchart.start_2;whiteSpace=wrap;strokeColor=#FFFFFF;fillColor=#FFFFFF;" parent="1" vertex="1">
          <mxGeometry x="40" y="120" width="80" height="80" as="geometry" />
        </mxCell>
        <mxCell id="19" value="New process gets&amp;nbsp;&lt;span class=&quot;JCzEY tNxQIb&quot;&gt;instantiated&lt;/span&gt;" style="text;html=1;strokeColor=none;fillColor=none;align=center;verticalAlign=middle;whiteSpace=wrap;rounded=0;" parent="1" vertex="1">
          <mxGeometry x="120" y="120" width="120" height="40" as="geometry" />
        </mxCell>
        <mxCell id="20" value="Task manager starts new process" style="text;html=1;strokeColor=none;fillColor=none;align=center;verticalAlign=middle;whiteSpace=wrap;rounded=0;" parent="1" vertex="1">
          <mxGeometry x="600" y="80" width="200" height="20" as="geometry" />
        </mxCell>
        <mxCell id="22" value="Add to queue based on queue time" style="text;html=1;strokeColor=none;fillColor=none;align=center;verticalAlign=middle;whiteSpace=wrap;rounded=0;" parent="1" vertex="1">
          <mxGeometry x="320" y="120" width="120" height="40" as="geometry" />
        </mxCell>
      </root>
    </mxGraphModel>
  </diagram>
  <diagram id="FmOqSaMxAU7rS998gTiy" name="emulation_code_crc">
    <mxGraphModel dx="3576" dy="2036" grid="1" gridSize="10" guides="1" tooltips="1" connect="1" arrows="1" fold="1" page="1" pageScale="1" pageWidth="2000" pageHeight="1125" math="0" shadow="0">
      <root>
        <mxCell id="0" />
        <mxCell id="1" parent="0" />
        <object placeholders="1" c4Name="sjf_emulator.py" c4Type="SystemScopeBoundary" c4Application="Python Module" label="&lt;font style=&quot;font-size: 16px&quot;&gt;&lt;b&gt;&lt;div style=&quot;text-align: left&quot;&gt;%c4Name%&lt;/div&gt;&lt;/b&gt;&lt;/font&gt;&lt;div style=&quot;text-align: left&quot;&gt;[%c4Application%]&lt;/div&gt;" id="9krkrCmCOc9bY8GKS92m-18">
          <mxCell style="rounded=1;fontSize=11;whiteSpace=wrap;html=1;dashed=1;arcSize=20;fillColor=none;strokeColor=#666666;fontColor=#333333;labelBackgroundColor=none;align=left;verticalAlign=bottom;labelBorderColor=none;spacingTop=0;spacing=10;dashPattern=8 4;metaEdit=1;rotatable=0;perimeter=rectanglePerimeter;noLabel=0;labelPadding=0;allowArrows=0;connectable=0;expand=0;recursiveResize=0;editable=1;pointerEvents=0;absoluteArcSize=1;points=[[0.25,0,0],[0.5,0,0],[0.75,0,0],[1,0.25,0],[1,0.5,0],[1,0.75,0],[0.75,1,0],[0.5,1,0],[0.25,1,0],[0,0.75,0],[0,0.5,0],[0,0.25,0]];" parent="1" vertex="1">
            <mxGeometry x="400" y="10" width="960" height="670" as="geometry" />
          </mxCell>
        </object>
        <mxCell id="Nem7usS77iA_jL6YwA_9-4" value="&lt;u&gt;&lt;b&gt;Schedular&lt;/b&gt;&lt;/u&gt;&lt;br&gt;&lt;div&gt;Selects a process&amp;nbsp;&lt;span style=&quot;background-color: initial;&quot;&gt;to execute based&amp;nbsp;&lt;/span&gt;&lt;span style=&quot;background-color: initial;&quot;&gt;on&amp;nbsp;&lt;/span&gt;&lt;/div&gt;&lt;div&gt;&lt;span style=&quot;background-color: initial;&quot;&gt;non-preemtive SJF algorithm + process age&lt;/span&gt;&lt;/div&gt;" style="html=1;fontStyle=0;verticalAlign=top;" parent="1" vertex="1">
          <mxGeometry x="520" y="160" width="240" height="50" as="geometry" />
        </mxCell>
        <mxCell id="Nem7usS77iA_jL6YwA_9-5" value="&lt;b&gt;&lt;u&gt;CPU&lt;/u&gt;&lt;/b&gt;&lt;br&gt;The hardware component where the &lt;br&gt;selected process will be ran on" style="html=1;fontStyle=0;verticalAlign=top;" parent="1" vertex="1">
          <mxGeometry x="860" y="40" width="200" height="50" as="geometry" />
        </mxCell>
        <mxCell id="Nem7usS77iA_jL6YwA_9-6" value="&lt;b&gt;&lt;u&gt;ReadyQueue&lt;/u&gt;&lt;/b&gt;&lt;br&gt;Holds processes internally for &lt;br&gt;schedular to pick from" style="html=1;fontStyle=0;verticalAlign=top;" parent="1" vertex="1">
          <mxGeometry x="520" y="260" width="160" height="50" as="geometry" />
        </mxCell>
        <mxCell id="1MZX9nI7duf9BCnq68QD-4" style="edgeStyle=orthogonalEdgeStyle;html=1;endArrow=none;endFill=0;" parent="1" source="Nem7usS77iA_jL6YwA_9-16" target="Nem7usS77iA_jL6YwA_9-5" edge="1">
          <mxGeometry relative="1" as="geometry">
            <mxPoint x="1080" y="220" as="sourcePoint" />
          </mxGeometry>
        </mxCell>
        <mxCell id="Nem7usS77iA_jL6YwA_9-16" value="&lt;b&gt;&lt;u&gt;Dispatcher&lt;/u&gt;&lt;/b&gt;&lt;br&gt;&lt;div style=&quot;&quot;&gt;Gives control of the CPUâ€™s core to the&amp;nbsp;&lt;/div&gt;&lt;div style=&quot;&quot;&gt;process&amp;nbsp;&lt;span style=&quot;background-color: initial;&quot;&gt;selected by the scheduler.&lt;/span&gt;&lt;/div&gt;" style="html=1;fontStyle=0;verticalAlign=top;" parent="1" vertex="1">
          <mxGeometry x="840" y="160" width="240" height="50" as="geometry" />
        </mxCell>
        <mxCell id="Nem7usS77iA_jL6YwA_9-21" value="legend" style="shape=umlFrame;whiteSpace=wrap;html=1;" parent="1" vertex="1">
          <mxGeometry x="10" y="10" width="210" height="240" as="geometry" />
        </mxCell>
        <mxCell id="Nem7usS77iA_jL6YwA_9-23" value="package (or module)" style="shape=folder;fontStyle=1;spacingTop=10;tabWidth=40;tabHeight=14;tabPosition=left;html=1;strokeColor=default;fillColor=none;" parent="1" vertex="1">
          <mxGeometry x="30" y="60" width="170" height="50" as="geometry" />
        </mxCell>
        <mxCell id="Nem7usS77iA_jL6YwA_9-24" value="&lt;b&gt;&amp;lt;Dynamic Object Name&amp;gt;&lt;/b&gt;&lt;br&gt;&amp;lt;Responsibilities&amp;gt;" style="html=1;fontStyle=0;verticalAlign=top;" parent="1" vertex="1">
          <mxGeometry x="30" y="130" width="170" height="40" as="geometry" />
        </mxCell>
        <mxCell id="Nem7usS77iA_jL6YwA_9-25" value="&lt;b&gt;&lt;u&gt;&amp;lt;Static Object Name&amp;gt;&lt;/u&gt;&lt;/b&gt;&lt;br&gt;&amp;lt;Responsibilities&amp;gt;" style="html=1;fontStyle=0;verticalAlign=top;" parent="1" vertex="1">
          <mxGeometry x="30" y="190" width="170" height="40" as="geometry" />
        </mxCell>
        <mxCell id="Xo8Z_9ig3lbp2A22j43B-1" value="" style="shape=image;verticalLabelPosition=bottom;labelBackgroundColor=default;verticalAlign=top;aspect=fixed;imageAspect=0;image=data:image/png,iVBORw0KGgoAAAANSUhEUgAAAkkAAACwCAYAAAAbgvrMAAAAAXNSR0IArs4c6QAAAARnQU1BAACxjwv8YQUAAAAJcEhZcwAADsMAAA7DAcdvqGQAAGJcSURBVHhe7b0LtBXVlai9zO0k/TdC+nZrGzBokh/xgSaiCCoiIqigqDgUkRiw5XHSjUYQROwLPvDxXzQCwYi5OQiJzTWg4NUgCgrxBBCVyENbIfLIQ1QQ7c6NgrnjJulx/v2tVfOctddZe++qfZ4b5jdGnaq9atZ611qz5ppV57DaHEZRFEVRFEXJ43PJXlEURVEURfFQJUlRFEVRFCWCKkmKoiiKoigRVElSFEVRFEWJoEqSoiiKoihKhBZTknbs2GVOOukMu1133XeSUEVRisF9c8MNE5NfbZ9f/GJd3X0ewrn77vte8qvp+f73H9Hxpa3w/e8bc/fdyY8moKnjU5SUtJiS9PzzLyZHxrz++mY7+CuKUpwhQ4abmpp1ya/KBQVp3LiJet8fCtxyizE332zMp58mAY2kqeNTlAy0mJK0fPlKu7/ssovtfsmSp+1eUZSDh/PO62O2bXvdboqiKJVOiyhJKEh79uw1xx9/nBk6dIgNW7bsebtXFEVRFEVpi7TIF7fxqWDJ4NprrzZTp042AwZcZpWmO++8zQwbdmUi1ZAnnnjKLF78lNm+faf93alTR9OjR3eraJ1+encblhbM/StXrjYbN26xaUP79ocn8V1hn4DTIMsGZ5xxmnnwwfvMzJk/yJVtrdm//4DN3+DBA205jzzyiOQKh/horFmzwtxyy1S75Ej6w4cPNRMmjLPn4NFHHzPPPfdCXpn79etjqqqubxCnwBLGggUL6/IBXDNo0IU2PyFZ5T/++N/N448/WafsAgovdRfLV1b5UqTNL+kOHz7Kpkn7PPbYj5IzDuIZMWKsjWPixBvNmDHXJWcK5/mSSy7KkwuhP2AVlSUx2rRfv3Mb9FH8ZGhzyu+3txCex7+muvrHydl6HnlkVl5fTZu+EKtL6qpPn7OLljMtcn+AWJOkbCFprU1p21/qjPIwzvjXSL1MmvTdaP/LOj5ImWgP8NuAftO37znRdoawzZC/5porzVFH/UPd2BL2XYiNh8XGhljfoDyF7vOi4BP06KPGbN3qfnfubMzZZ5tcpzG5Ad2FwWGHJQcevXsb8/LLyY8cxPXCC8a88kr9EprEd+utxpx2mguDNPFtzvWtBx4wZsWK+vgG5so3dKgxo0a534pSJs2uJDH59O07yB4/88wi07VrF6sIzJr1sB0cnn76p/ZcyG233VlnbWLQgHfe2VE3SIaTRTEYXKZPn2GPGViOPrqjPfYH7rTxySRA3oEBi+MOHdrXxcfv6uqH8gYuUZI4xyB8wgldbXmYrFEUqaeqqpvqBsAwTgY48hhOfH7ZkCHeDz7YWzfQi2IqIE/dy8SB/Kef7q9Ll+XQGTOm22Pw8yXy4Odr+fIldWXNKl+KrPn1J+kHHrgnbzK44opv2euYWObOdZMbbNq0xUyZcmddnUl/K9ae4PdR6Vd+H/XTz6okUW78+CQPkqebbvqnuj6AEzSKHUj6ftuHDyGUk7ohfyLv12WhyTkLfv2LEkQ+UT7CPpEmrSz9W5QkyrZ//35bzjRt6aeRdnyQ9qL/0QfS9E2IpSV9hrxxbdgO3FPyYAUyNsh1pB2ODX46Iu/XW6F+GOWaa4jQHaOgwFtv1SskS5cac2XSz845x5jdu4157z2n+BxzjDHduhnzo6Q8flyE/+3fGvOHP9QrXx06GPP22+5aKBUfCtedd7q8cO0pp+THN2yYyWmW7lhRygElqTmZN+8ntSee2KN25MiqJKS2NjcQ2DC2jRs3J6H1EMa5/v0vtbI+U6bcYc8NGTI8CSmOn9bixUuTUMdHH31s4+HcuHE3J6HFyT2Z1sXH9uyzK5IzLi2Jzy8viHzPnufllYk8APKc5/rwvJSZa0Ue/LLNnj03CXVQVjkndYw8ccTkKZec8+tJ2o/68dP26+7eex9IQrPLF6Oc/ALxE+7XF9eHYYLfB/xzpC/naAMfqV/i8/sA+O0lSPuG5RAKnSeMLYQ0JY0wfWkDNr8vUT7CwjToH8TDuTCurPj3h4+Eh/dFMbL2b2ljtvA+8stI/Qh+GmE/8vtsOD5Ie7HR3n6/ieUN/Lrx0+Ja6TNsYR1JfyYvfnz+dYyVPlJW0vTx8+bnuSCrVvEUXVvbuXNt7aZNSWDCsGHuXLduSUDCpEkunL3P7NkuvEMHF68Pvwnn/PTpSWBCofjIj1wTnluaq185R7qKUiYlfZJWrl1tHl5YbX689H+aTW+/kYSmB/MwXHzxhXYPWJN4moclS56xe5916161e56ykPXBXA48GaUBUz1PUqQXLu3xNDl69Eh7vH179rdusAL5lgryev/97jVVnvpIO4TlNb9M5IEnfHlK5PrwPE+j7un4gPnZz55Lzhi7nAA8eYZPhZSVJ1nKvmvXb2wY8sRBXYTyPCVTHpg37zG7h3XrXrH7447rkvf0LXXHU6xPVvlilJNf4ClZ6gvLAvUrS1e33z4lL188cecmSit/113/Le+c355YC/z2lDRpz3DpQtoLywJpNwdYTWDs2H9skD7LZrQ9SB8BWXY59dTc07YHFgjkyfNnn32WhLY+Wfu3T3gfSRnBl2/s+ECd0d5+vyEe4gQ/LZa+gP7pp8W10mdCyJ9YC6dNm5xnLfKvw0JEXwasefR9CK3jkje23bvfS0KLsNK9cGMtOP4yGHwv+ZwD1qA0vP++swZNmpS/RAf8xsoE27a5fSlYYsOCxNLagw8mgQlYtqYnVrxZ9VZjRclKUSVp7S/Xm13vupv8s//zx5yStMV8eiAxsaaAm5Wbl4nx/PP7JqEO1sWByQdzso8M4igOTAb+5MTAgBk/7bIAEwhLev7yis/hh7ezezFDZ+Hyyy9JjuphYBYT/9q16+3eJ5ygQJRCBmp/YPfBZwFECQGWMACfiRgMoJRdBuTcU6XdS92HiBx1IZN79+7ftPtFi5bYQdhvK+p2w4aavOW8rPLFKCe/QB+5/343QDLB3HuvG8xZmgkVCmkj6t6f6IRYe9Ifpb8QZ4zVq5fZPupPak0FZZX0Y30QBg50k5DUIUg55sz5ofW98qFNyLM/ebc2Wfu3QDlj91G7du5e37v3Q7uHxo4P9JsY8hC3d+8+uwdRUv0HRh+5x32kz6HUFOpL0qdF1leM8AcNFXXKy5aqb551ltuvz8XNq/j4/wgoPNhqfP+gYqDIsHR2xx1JQED75MEXZSoN+CABvkcxJkxwe5bqVq92x4qSkaJK0t6P629w+NOf/2x270nZgXPgCAk4TIYTEDe2WBV86whwk8uAjgVgyJDh1p8E3wYUr8bAgEEcKF/4lMgEmhXyF5tUQRSFffs+svtS7NzplECsL4Xo0uXrdi8WJ5CBWwbyUsjT5fz5/2p9KmKbILIoAbQTv/FxwL8MOfzKwsEXssoXo5z8CkwAPLGDWIrkt8+BA85ywgQWi58N3w8QWX/CLNQHmhO/rPiqxPKMIgS+7PXXf9vuqY9bb73d9OrVz06iKLP+g0hbIWv/bgqyjg+ieJXC7/uFHoTkHvfx+1ysndlE4RVZkL5Ovx4xosq+LEN5kA0fSouCRUb8kGbO5MYy5uSTjflO7t57ylmuyobrFyxwytegQZhnkxMpEZ8oLEX4LsU24ZNPkgNFyUZRJanjkUclR44vfP7z5phOX0l+FYcbUZ5isRbJV3j9TQZwWZLz4c0xWTYBBnasAjiFcsOHT8LFYIBiMiBNBgziQPkiXzh4NhdpJx5/cCuH0KReCuoSZSu2haAELFw4zy5ViFKLHM7U1CWDtD8BZJVPQ5b8+vTpkzwF5zj++PzlvxAmoVj8bKECJogi35rE8stGnYXQT3DwFesH5WISRZnlQYRJNNME2kJk7d9ZaYnxoVAfSgvXx9qZzVfaBZYncdyXZT9kKA/K8eDBQ+uWa1OxaJFbIhNnapyiq6uNueoqtwyHopMWZFGyeGuN60ePdsqXLOuVA/nB0hXbFKWRFFWSzu3Z23Q51j3dtPt//sacfnJ30+HwDvZ3KV56aU3qgYEbOLQQMaFxo7MEwFtx+J/I4I48N3saqxIDIIMekwEKF5M3yheTBfGKz0lzIBalUmR5UhbFwyerdY3PELBkWWzzJyaefFnaYKls4cJqW38y+DJIU7/+5JpVvhRZ8wvE71sBaH+sWYXgTbRYvP4W+sVQltaEOo3lM9x8qCeWlginzFj+5EGESRTLVFsja//OQmuOD1mgncJ2DbfQBYFlSJbVuH9QmOTBhXEZJTC1ooRyJEtlmzY5Xx/8gIClLBSdNFYl3kRDFqWGN9SqqlxcvB1H3GPHJoIZ4Vrnol14k7fvFCUjJR23B547wNyYe7q6/qpv55SkU5PQ0oh1qNTNLQO0ODXGYNLFGZXBnRternnjjbfsvhi+8y8KF5M3kx2TRSGzdxpkCSbGli1v2n1a5UeW2WTZLYY4gMrr0yD1UMgSxTIKSyry/7JEwdqwYaPdlwPLWNQfgy8KEFC/W7f+yh6HZJX3aUx+mQSwpqBIoAzAvHk/aWDdkzZ6883SfUmQeodCyh5WGSye4kxbCl4dT4vUC+VrjOWHJW/xRRIn+NZW/Hyy9u9yaK7xIcRX4gtZUmMO6NI/xT+rHHjgRGGSBxd52JRxKhM4b+NThD8QyolYl151fpVF4VV9QDHiNX9e4ycuFBiJJwu88g+rVrm9ojQDJZWkcmAQEHO/OJAWQpwVeZKTCYxBjwkm9uTPDc8H0dIiA2whfx/xm8oKA2tsAqQMMtGce26yll8CWRby6yBElE4++idIPaxYUf9/8Xz4zg755CN1gG8YFFJISZslB/y/JB8sjzERxQZ2FCBfYYCs8sUoJ7+A5UHeCBo//p+tMsDSGHURTqjSRlhRCikc9EV/iZfJU8oR+tMB8bDUjMVT/Exksou9PUbeY8tjhfDrUcoZQt+kblhGAtpD2iZG2r7akmTt3+XQXONDDFFO5EWNED4iGyLtQv8oZFFDIaddxTJE23NPSNuHZGprfI9YUov9c1kUGz4AmRbxIcKKFOPJeF8uCH5MUGi5DydzlvVY3vMdzhUlA82iJMnAwlM8A3ox/Ldz5J/gMrEwwfDkHw4MDPbi6xR7UyxEJqc1a17OmwQ5ZlBhciwX/Gx8ZYDJbsoU9+YGFrS0T6LUkfi3cL0/4ZNPBkHqAwuCX1+jRo2w+9hSEr9R1vxr5F/CEB76n/h5580cyXvHjl+2ExFLV36+gMFY8tWt24k2LKt8McrJLzKyzEYbyBM8FhPSJS6/rnjrEoWDPPMRzEJ1j29Kr149kjOsDLivU4d9lGv4Cjvx0abS/31lrFCfKUZYl/JwgcUsbHvyQ98EmfzJBx8TJF9hXYL/un1zQh7SkrV/l0Nzjg8h8pYebeY/YEk/iynK9GtRrugn4XhIPZBH2lXGQ5b5iStWb6QlD1yp3AFOzN2nLKnhNxQuqfHGmLxhJm/B+YRvqYnlZ8kStxdQYFB4SKcYYXx87RvwPeLzAf71xDnSfb7BfqIg/HyBoqSkWb64zVMNNy0m/DT/6oABghudyQqTN/DUyyAIKFtMhKW+ZhuDQQWfA2BAleUqiZuJVJ7GWcor5twLYXyUU/Ln57fQF7fDL/cKDF6N/eI29Rd+dTn86rQvL/Xh12uYd/KFoyflBJlE/TT8LztnlS9F1vxiKaI9qYtFixbktQGTHhMU8eBcLooVSgttGua5VN1LvwVpL/8ryH4aYfv6aSCL1Yy48IfxfZ/kK+HStv4Xt/30Y20f3iOF7oViX26W+zDMVyH8NFhOFyi/fHlf6irrF7dL9W9pX+o2FnfsfLnjQ6l6KXQ+Vh6pf+qFtg7zX2hskOsgvKekrCDpgJQrvG+Kwlti4gQd+0p2+FVrLDv4HgFvxskXsnmLDWULsEJhoZJ4UKBQlPgaN/IsxwmF4gP8nG6+2R3HvriNLIpcOct5ipLjv9yVIzluEhgEXnzxJXvMAN2u3d/Y42L81V/9lTU1c8MfccTfm5NPPik3OVxqvvjFL5q//OUv5t/+basdFP/jP35vn6rGjRtrtzR89avH5u6TE80f//jH3CDjvm+DVaB3717m1lsn5B42hucUs1/YuI89trNNuxi/+93uOrP4qlU/M7///f82b7211fz2t+/agee6675lB+6w3HPnutdb+V9g5CkE+f79+5q/+7v/auNkQCSvDHBMdjNn/n+mS5f/N5Guh/yeeeYZ5j//8z/tNeQDKN8990xroJAhf8EF5+fq4//YMnMNe/J+5ZWXm6lTb8kbOMnXkCGDzZ///Gfzpz/9qa4tgKVUPnBHfEJW+VJkyS8T3owZ7ns3fDSye/dv2GOBeqKt9+z50Pz617+1fQyoY/L8hS98wS6/SJ4JR3mhHk85JTfYBgwY0C/XZ46xfRSfEa6h/3LNww8/mJsD6t8ElfalbennlIN+SJ0gS7tt2vSGVVDIp3DccV/PKRvv5Prduzb+r33t2NxDsfMNJH3p25wnDuJmksXSFU7e9DvpK1KXkudCfeyZZ5ZbmTBfhfDvjxtuqLJ7oPyks3Pnr+vKQnzUcTGy9O/XXnvd1iEKgbStT+x8ueNDqXopdJ7r6TN/+MMndfVPm06ZcrNVfGL5p+6wHFJ/5FP65xe/+IW6fPoPQkCa0jelb3BNsTGqIPz/s899zuRuap4onMXm44+d8/a//AtPJolgQveckr03d8/vzCl1u3a5PXIXXugULCxChBPPX/91/ev/Q4YYM3u2i/uyyzBLF48PzjzTyfKKP9ehXLFHOcKS9IMfqIKkNIoW+Qe3BxOFnpQV5WAFqwhLM2ksSUr5iPUnrZVcUZTmp1l8khRFOTjgoYAlmjT+f0pxUDbZqNMY8rZZ7KOSiqK0DqokKYpSEN4sxK8m5kenZIOXGlA4+Ro6fkY+TeWIrihK06LLbRnR5TZFUcoBxSj2UkMxB2xFUVoXtSQpiqK0ALxgsHz5EmuZw4Eay5GzHrW3fkh84VsVJEVpW6glSVEURVEUJYJakhRFURRFUSKokqQoiqIoihJBlSRFURRFUZQIqiQpiqIoiqJEUCVJURRFURQlgipJiqIoiqIoEVRJUhRFURRFiaBKkqIoiqIoSgRVkhRFURRFUSJUlpL01FPGHHaYMV/6kjHvvZcERjjnHCdXYZx00hmpN/lP4hzzn8WVtgftQvs0FU0dn/D97z+S16eUfKiX2267M/nVtOj9qyhtm8q0JH36qTFVVcmPgwf+4aW/8f+doFOnjg3O8d/CFUVpfviH1nv3fpj8UhTlUKKy/ncblqSrrkp+5Jg/35hRo5IfHliS1q83psL/LR1PsAzQ/EPMCRPGJaH58CSK0vTYYz9KQpSDFSwO/EPUbdteT0KUlqA57zG9fxWlbVOZlqTevd3+rruKL7spiqIoiqKUSWUqSWee6ZbbUJDuvTcJTMHq1cYMGuR8mvBZOuYYY265JTmZg/gIxxLlI+ExPyfiYGtlNm3aYm64YaJ9MmXjmLAQkevVq5+VGzDgMuuTkgYsW1yD/KOPPmavLRSHyN533/fqfGmQ8/1euEbiYCNf/nmfmOyOHbuSs/Ugd8UV38qTK1YPIkfc+J18/PG/JxKOtHIxYj5EjYlPoNx+HIXKSJzELfVGm8fSos4479c9v8k/YVKOYmktX74yr94lHY7DvlGIMA6O/TxxTHihPpW2vEAZfFmJy8+r1AtgwePYPy9tmeZeCtu9UL4URWlbVO7bbdOmGdO5szHV1W4ZrhQoSFdeaczKlU5RmjTJKTczZxpz8slOhviwUrFU57NqVXKQw09r82anQBFfggyCLck77+wwI0ZUmQMHPrNLc5dddrGpqXFLdf5AzEBNGOf69TvXyh59dMdcFf7YTkhpYTKbNeth06NHdxsHEAcDf8iyZc+bDz7Ya+WOP76L6dbtRBtOelyDbxXnrr32arNxo8vfE0/ktycToi8r5RsxYmxe+Ugfuf37D+TFSd2QZwElg3Q4h4zkjbwOH16/fJtWLi1NFR/l3r59V15dEK+vvFAvVVU32bhpY2Rpc34PHjw0qmCG0G7EC2Fafr3TXrfeervZs2evLRdbTc1am35aUC6Ig7aTOIiPtHxFCShD2KeylLf+Plhb14dJD+g/KGFw6qmn2HOAXyDHhEGWe8mXpQ6RpQ/ccsvUREJRlDYLPkkVw9KleBnV1k6a5H7Pn+9+d+7sfgu9e7twH2Q6dKitXbUqCUggLmSnT8//TVpCVZW71k8bZs92YeQj4cQTe9itKcgN4jau2bPnJiENkfTmzftJEuK4994HbPjixfXl6N//0tqePc+r3bhxcxLiIP5YHCGSnzDejz76uHbIkOE2HBkQWdLjvI+kN2XKHUmIg3wh719DOsiOG3ez/S2QV8IpJ4hcGCfxSJyCpC95FYiLOpL6SStXiJEjq+z1QlPFx96v01gdUQ+E+e0E0i6+bCxf/GYL+0QYr1+/27fvtGFAOGVClviLwXXIIe+Xi/ognL4Fkne/fwhZyit9J2wHvyw+yFLnPuQVubDNpC79epN2C9Pz21NRlLZJq1iSnn1phXl4YbXd9uzbm4SWAU7bAwc6a46/bBaC9QeZa64xZsCAJDDhwQfd/skn3Z744NVX3R6wLJ19trM0vfZaEpjjhReM6dAhz3kcp9rWcKwdM+a65MjRu/eZdr937z6752mcJ3OeZE8/vbsNE8Qp/LnncuVJAY6mw4Zdmfwy5sgjjzCjR4+0x+vXe/WT44QTutrzPmLVmTTpu3YvkK/hw4daa8JLL62xYc8//6Ldjx+f77hOebEsIQsiF8ZJ2hKnb02CXbt+kxw5pk6dbFavXtagftLKpaWx8d100z/l1SltwZuQWCrEwoMFhTC/neC88/rY9vNlixH2q4ED3f0j/WrDho22bqnjrl272DAgf2PH5l9bCGk75P1yUR/9+vWxx35eY30qS3kpE/co53yIk7ilTxUiy71EmizVkbcwPdpRUZS2TYsrSW/v2Gbe/SCnsCS8sO7nyVGZsNyGosKyGUtqMUTh2brVKVPhhvLDOUCJIj5RhlCuOHfWWU5ReustFw6vvOLCWhn5VEAx3njD5ZtlB5Y2wo3lhNwTvZUpRffu30yO6hk82CmX4TJOTJYJhokrnOhAljNkEmYpEWXIn4CFDRtqzIwZ0+0xExE8/viTDcr24YcuLlFOLr74QhsnS4b4kbBMx5JRqDSklUtLU8UXU6b69nV+dFu3/qpueYrJPqwLNgHZYqTpV1Kn0m4+Rx31D8lRcXbudH2mS5ev273P3LmzzNNP/zSvr4R9qtzyUu9ci38dS2wsk0k/KkaWe0nSlPbxKVfJVhSl5ahcnyQBBWfSJHfM227FwCKEMhVuKEI++BiJX5L4I6EM4TDON5pQxrBOcXzRRe58K9KhQ/vkqDRMAvhNhBuKS1uEiY+n+7TEyoaVwQeF65FHZlkrBeXm/PTpM3IT2aA6fxRIK5eWpo6vFKQRq480igBk6VcxQstJIfClg8YqDWnLi3KEgkq94yuE0kpbdOr0ZavgpKXS7iVFUbLT4krSyV1PMscenVNsEi7q0z85agR33FHvcH333UlgBL6r5LyI4puAMgQoQhs2OMsSFqZzz3XhWJBedEsEdWEVwgMP3FO3JBjb2hpYXrAmpQHLR6xMsvnfmmJCxkpBOIoLjrtMkGKJEtLKpaWp4ysGcUvZY1taJaZcxMJTisMPb2f3vuN5OaQt78yZP7BKEcoqbcA5rJK0C87Xaam0e0lRlOy0iiXp0vMHmRtHVNmt01HpB6WiPPSQ22MZ2r3bHQsnneT2otj4YEXikwDeG2r2LThAXvyR4LTTnMLE8h3h3bq5sApAljJeftnztUrgyZrXmHlFOQ2yfOUj/j6xZbEQlAKewmPLTLKUIROn+IjE3sbirTd5kwgFiSWOmBzKB8tbkkesNv4biEye+AUxYcKWLW/afVq5tDRVfLEyrlnzst3zppe8QYgfTgypt1g8WenY8Si7D/2sYN++j5Kj4hx3nOszsTik7YopUFnL66xGHa1SFCqKaaxsWe4lyZu0j09jlUJFUZqfyl9uE1BWWHZjCSxcPsOxmmW5J55o6Lc0ebK7BoVHQJbfKELijySgMGFJIlycvCsAfIaYGJggwsGZJ2sUEZmsShHGwcQwf/6/2uOhQ6+w+2KI/xLp+hDnokVLrPXo8ssvsWH48cCCBQvtXkCWCY0lErjmGqfYzpmTb42ROPfv35+bvHokoQ58UXxkmaRjRxenkFYuLY2NLywjfk0oiDgS47vDxjHxhmkhS72xlJZGoS3F+ef3te01b95P8pRejufNy0+7ENLGixfn+2dxjGJL2xVbiiunvMTppwUswaUhy70keaN9yItP2KcVRWl7HDxKEvCmmq/s+Mye7axAF1zg3nLDYZuPRqI4cc348YlgAgqQOHP7ztkoTChVEFGSWuM7SWmZNm2yndD4bhATAk/pPGUz2GOJYbkiDcSBL4fEwTd+mAS4Ps3Ey7IX6ZEuT/jEgZWFOJlgJk68sc5Rl7eVcPJGlrwiS7rIko9Ro0bUybF8gjUBy0OxOFHkuBZfFCkD+ylT7siLM61cWpoqPr6x49cFfk1c77/ZxzETOWnFZJvqzSrqlLqljvkeEXXORp9AEUkDfYZvB9GHuI68ShwoPsRfiizlpZ+SX0mLjT5TU7O2oLM6S77IyRJilnuJdkWWvIisSy/dcqSiKK3HwaUkwXT3tlMDWELDxwjFZsUKtyzHm2rDhrnfWI98xHok/kiCKExheAXA0gJLO06ZWGudTBn8edKtrn6oTokoBa97s0kcTAD4Z7B0lBbSY2JksiIOfHL4sB/5C1/j5v9aIcsHBJFlIkJ24cJ5eRYGlk+QIz8SJxMnefPjZFLmWsotZWDPRwEJF0UvrVxamio+WZ6T64lv+fIlee3H8aJFC+w5v97ED6eYZSYr1C11TF1T59I+t98+JZEoDYozcfhtx3GsP8TIUl76iFOU9ls5LI3Sny65xL2I4X8u4s47b7N7ZOUTF1nupVi7S9kURWnbVNY/uFVaFZ6iscwwyfhO0IoSA0WDr2ijZKRRdBRFUdoaB58lSVGUFgPFGUfl0BcIlix52u5j38pSFEWpBFRJUhSlbFh2El8g3ujyfXxwmE7rp6YoitIWUSVJUZRGgQ8O/jb80138bcTnhmW2LH5qiqIobQ31SVIURVEURYmgliRFURRFUZQIqiQpiqIoiqJEUCVJURRFURQlgipJiqIoiqIoEVRJUhRFURRFiaBKkqIoiqIoSgRVkhRFURRFUSKokqQoiqIoihJBlSRFURRFUZQIlaUkPfWUMYcdVnw75xxjFixILmhlJD8tCP9w9KSTzki9+dfwP7eUtgdtc91130l+VQb0JfJN3xI+/vjfzX33fS8vLCbX0uzYsatZ6rcS260cKnH8yNLv+OfNsX/grBwaVKYlqXNnYyZNargNG2bM+vXGjB7NXZAIH1rwP7POOOO0vI1/QArHH39cg3OK0lI8/viTdmtroLjxz3gVJQQlin/efODAZ0mIcsjB/26rGJYu5R/N1db27p0ERBCZDh2SgFakVF5biNmz59aeeGKP2pqatUlIPoRzHjlFaS5K9cPWYuTIKpuvpoY4iVtpe6Ttizo2KgefT9KVVxrTu7cxn37qlucURVEURVHK4NBy3F692phBg4z50pecv9Axxxhzyy3JyYC773b+RL6/E9cSR4jEK3LXXGPMe+8lJxNIh3OxZcDNm+uva2WWL19prrjiW3a9vlevfua22+60viQhyOFvgRwb1xCWBvEHQJ6lDtIpFIfI4hMwYMBldXKSJ/bkUeKQPONnEhKTJf2wfCIn6UmcoRz49SV5i/lmpJWLgXzo21JOfOQ/FpeEs4VQB2zCpk1b8uqGjeMwbWk38fnguLr6x/Z43LiJdWmFcsBv8kiY38duuGGiTT+EMM6JHNcQxj4sqw/xIy9LbXKtIP0gTd8qBulIWxXrS1IOSS9Wr8UgTvqz3y8KpRfWGWmVKyf1GOY1bbtIH6BPc5ym/IT75SQd4o6BLHFJnOEYUwjySF8F+i7X+/00dg8+8UT6B3PyS11K3iR/hcocgjx5TNO/kOM8+ZP6RU7IUpZYn4j5bIlcqfYkr+RF5NjH2jOtHMTySNpZ6wX+y105kuO2z69+ZcyTTzrlZtSoJDAA5YQi/d//a8yDDzqFCFBksDJt3WrMkCHGDBxozP79Jlc7xixdysjt5ABl5eGHjenQwZiRI405+2wXz8rczfWznxlz0UXGdHR+Pnnx4hNFvMgRTl4kr0ccwZ3mlKFvf9tdK8ybx0hjzMTcDdm9u+30F198lfnlLzflOuuliVD5vPba67lO84a55JKLzFe/emwSWs/vfrfbPPfcC3bwZ9+795mmb99zzF/+8hdTU7M2V7Rf5eWDDjVt2j256ttvhg4dYs46q6d5++1t5n/9r2XmD3/4xJx7bu9EMo7kZ+vWd8xbb201l112sfnGN7qZjRu32PSPOOLvzcknn5QnS/xf//pXzeDBA81f//UXzeWXX2LzO3ToCBtH7969zIUX9jdHHnmEWbbseRvPaad9s84fi5tj8OChebKUb+XK1XnlQ66q6ibzyisbzAkndLXpSZxPPfUzWy9///d/Z2UZWG699XbzxS9+0QwfPtScfnp38+67u82LL/481/Qf5G7MfpnkCjF37jxz9NEd6/JYbnzt2v2N7VMoBTfcUJWEGtvGq1bV2ONu3U6s6yPU77x5P7HtQ5sy8DBp/O5379b1EeqI/kOf9ds+7HN//vNfzOc+9zmzZ89eGx/XnnnmGdG+SXlh8eKnbLlpg6OP7mReeOHnuduqJnf7DrZlAcnT9u276uIlvqeffjY3BPwpdwu3L3gP/elPf86d72D27t2X68sHcu1+ve0z9L0sfasQlIN7hLxI35V76tVXf2n69+8bLcfAgQNsOT777DPz7LMrcmX+RW5Iyo0xRZB+W1Ozzt5L5Jd+8fvf/2/bl0lP4qBsY8bcmGuLD+vuX4Yl6vfFF1/KDXnDM8nJ+EF6tClkaRd/POA65EmL9OlX9B2JF5jEfvrTJXX9nz5Iuekvxx57jOnatUsiWS/bvn17K0u6Dz9cXdcXC42J8Kc//Sk37HfIlWGn9d+k/U477VR7/6OM4qtEHiS/jFHcm2nu6Sz3UiH8+6RU/3rmmeW2vJs3v2H69TvX9OjRPTc1fcWWJ0tZyBt94j/+4/d1/ZR2oj/47ZSlP3/722NsHxU57jN+U64LLji/brxNK0e+SdvPo6SdpV7qSJbdKoNSPkmrVtXWduvmZKoCX4DOnZ2fEjI+kyY5+enT3e/du51sLI1QFpAjjLz5SLgfj+SNNHwIJ80EWQdvKn+GtD5JbBs3bk5CHUOGDLfhuYHC/mbPb8I/+uhjGyaIb0cYR4jkp2fP8/JkOSaMTeIW2VhdSHqLF+fXPb/Da6ZMucOG5Sb9JMQxbtzNNjx3A9nfIhfGKXWEvED8fl4F6oZNSCtXiLAsjYkv1hfuvfcBGx/hvu+F1KPUDXUXXgvkg+vZhFg6acP4zRa2VaxtqAvCJI+CtKtfb4WQOHwkLE3fKgRybNSvT6wv9u9/qa2/8N6R+gnrIoT643q//QQpi8Qdq3Mgn+QjqxznkfPTljTTtIukQ5x+n5axhnBB6p869In1QclX2FYSzhaWLSRWNgnjXvPzyzFhaeLNci8VguvZwrqQ/hVrDz8MspaFtiDM76fISrjEwW/KUKo/S/phvug3XC/3X1o5v/7CtLPUi0+rLLc9+9IK8/DCarvt2bc3Cc0Ab7DxSBNuF1zgLDpVuafkH/0oEc6BbxJWHSxEAwYkgQlYmwALFfDm3O7dxrz8svvtc9ZZbo+/ExAneenWzVmTfGIGujFj3N73lWKpjTyzXJdw3nl9zLZtr5vHHvPK0ALwtMTToA9aOKBtw/PPv2j3o0ePtJq8z/XXOwsZ1pk0iBVE4JgnGZ7qN2zYmIQ6unf/ZnLk4OkFiwhv7A0bll/3/KYsnEcOsADw5D9mzHX2tzBq1Aj7RuCHH+6zv5GLxUmbECdPrL7Jlrzu3p2/tPr00z+1m09aubSUG1+fPq4Pv/HGW3YPWPB4gqJ+tmx5Mwk1Zu3a9bZueEIF6o5+SV340A94CiZPTUnYVjwVApYfoB1oY3nK9xk/3rMMZyRr3yoG9Td16uTkl2PSpO/aPdYX4OlcLGzh/TdhgiuHyBaCNtmwoaZO3kfunbB9du36TXLkIJ+rVy9rkIe0ckK57YKsP6ZgESIOGXtAxh+pQ4HrGE8oI5YEWL/+NbsfOvQKuxeoq3798vtwFmR8C8dAjseP/2d7XGoMbKp7if4V1oX8XrOm4Rx26qmnJEeOLGUp1E+RxTLE+IFVvpz+vHNn/r1EX6A/h/dfKbmXXlpj6y6WNvVCfUn/8AnrxafFlaS3d2wz735QP7i/sO7nyVEGwk8A4KgN7FFwfAUJXn3V7VFG8A0KN+LjXAhLZnxzCRmUmHCJ75e/dHuW2EJCZQxEkXrB6yDLl7v90KFu34r4ZupCyCT68suv2jVef5OJN83kAbGOiekZwoE5lJWBU5S4EJkYkMP0C8cf37B83EjcZAxa3NzATRaWjU1gIAAZfEeMqDKs4WO2jt2AaeXS0pj4KC8DhbQjExrLCdQXitI77+yw4SDKUwjXUFf4IZA2eWBSbEpQUEoh7RAq0JCmLxciS98qBRNeCJMKkz/1Dv59E+t3TD4imwbahiVxrsXnQnzBhIsvvtD2AZZY8NVgSQp5X/mHtHIh5bZLly5fT44KI/2MT0mE9SQPOjJ2yDgUKmpw3HHl94+9ez+0+1i8ovSITCkaey/Rv3zlBsL+5RMqZVnKIvUaayfGTxRnrsnSn5HnXufhU3yMqItwDkkrJw9QMo/4UC/UV+y+DevFpzIdt/HzwQIkG1Yf+UaSZ5FpAOdnzmy4hU7WKEakgWWKby6JDL5JjQFlTHyWJE0sWFiiYkpVC9OuXbvkqDRYXBh8w60tIk9laQdGbqJY2cLBi4HlgQfusTcvNz0DN75C3MRMJkJaubQ0Nj7W3qUsYrHr3v0bdqOuUCoZuDn2/SIY0Jko+/YdZNf8mTydhe7LduBrSvAdaSxMFJUEbRLrd2mUMWACog/QNtOnz7DXQlgPKCqPPDLLWlOImzZEnnZlohbSymWlULscfnj68SesIzbyVym05L3UVMi3otIos5C2P1dXP2QtP4ASRF0MGTLcKvi+Qp5WrqlpcSXp5K4nmWOPzikLCRf16Z8cNZLFi52ygUXoOwXeaJk/H4+gwhuw/IVi9MknxsyejQeaO/f22/XLZY3hoovcniU3WWq7+moXVkGsWbPCmotjW0svE5aCp2EITbWFuPbaq6Plks1/6kBhYYmL+kBxkZuYyUQsU5BWLi2NiQ9lCJB78823bP1gYZIn/y1b/q1uqcK3Bsyc+QM7kDNpMnlSF1jh5s6dZR2s2xpZnsjbArRj2Nf8rRgox0xATLDEI/cn92LMokN7027I0Jb0ea4VC42QVi4LjW0XHg6kTmJbbMmxrVFp9xKIEhta+QuRtj9j4ZkxY7ot/8KF1WbixBttG9NPbrllaiKVXq6paRVL0qXnDzI3jqiyW6ejmrBDyOv1vEXm+/2c5N6UMi+69ew8sOjw5ppYoH6a+HRMn84CqjGneU89smwn9Ozp9liGQliqi0GcvDXHkpsstQ0e7PYVgJjLWfsNYdLlSTbt4Llv30fJUT0yOZd6WpGnrdi6O8hykigAwJsWMXjtkydj3uwCnlJi8MSCOVxMvBwTBtzAKC7cxNy8IGbntHJpaWx855/f1+6pa39Jjbalvqg7whmA/OUR96Tb0Q7koXm6NRQS6QMx5Tc0w2chS98qxQcfNLQC8dRLfVG/IH2dJewQZLmnWF4ohvjq3H//3bY/0C8Eya9AX6fPC7QlfkZM1iDyaeVCmqtdgDrDehqLh3GHZUFZepa+G1uKTvvAFKNjxy/bfSxeeUApZRVrqnspTf8qRpaySD+NKUky9qOsZ+nPyPNb0mKsZumOB0DqR+oirVzHjkfZvcwjPqSNO0Ga+9anMpfbCsGSFT5KcPPNbg/4ErHUxev+ofIyebJzxMYK5fP++8lBAtfxqr4PcbLMhzUo/P4RS3SFQCFDsUJpY/nNV8TaOOIPM2/eY7bTCRzPmfNDu0RTzAnOJ4yDZR4ZPBjoi8EAKOvu4RITv7lpOC8KEpYWzLyhrHzf46ij/sFOLCIn4YLEyTKQrzgQJj5PgqyLyw0LaeXS0pj4KCcDKIoQ9edbGlCYJDzmk8Mr7X6bAcsGrYH0AZRaGTyFOXPKs3JA1r5VjFhfwooA8ho0fZ0+T98P2xRZ7qksS8U+kt8YYb7kWpk4hbRyQnO1C0idhfFQb4sWLbH9s1evHjZMxqr58/+1wThT6EEoDfICQRivjIEgaRejKe6lNP2rGFnKgjJHP62pWdugny5Z8rTtpyhIWfozLh785nof0qd+iAfSyvEAiBJULG0c/LNw8H0n6cILnU8RFqIDB9xv4BoUk0cfNTl1ko9zuA9GrljhFKQf5DoWFiW+Z8TSHd8tEjnimzKFGaTeN0ni/XpOa0Z+2bJ6eZblWEqDWF5RypAnrhtuMObMfCczBpbW+E4Sg77/PRIIr+VbFHxPg+9i8N2gjz76OFfUN81//+8z7Tc/UDLQ8IshccKzz/ItjvfNunWv2DVmOvHtt0+pU0SK5R3LD/kmL9u2vZN7Ovy1/e4Fyw7cKHffPbXu5vnmN0+x+UWWb3+8/favzMKFi3ID61KrMEyePN5+OwM5ZNio/3fffa9gnDxh8X0hvt0j9UCcpEOc99xzeya5QvA9FP87SY2ND3By5btKMG7cmLoy4aQpFhSWLSQc+HYLChR1w/d3aBu+l4Uy8bWvHWu/SyLfX4q1m4T98Y9/tG1V7DtJfnmFWD/lmybUA9/fkXa9//7ZNk985yYWT4h8K4XyUX6+k5SlbxWCciBLfUrefvjDR+0kgxIxbdqtiaQrB28T8s2XUJY2nTr1lrpvu8T4/Oc/b/sEcUif4Hq+EURalE/q+MtfPsqWzc8XZZs37ye5e/sLuf4zzd7naeUa2y7F7nFpG+lXtA3tgZLz9NPLbT/8+c9/UTd2/Mu/TDQ9ezolibzRpshKnyW+GTOcJQxiafpI2fDH4Z75u7/7r7acfryMX1nHwCz3UiH8/iV91O8z/jgQ1qNA2bOUhXalTf2xh3alLMjKt7PS9mfGeb6bxPUy3tKeDz74A1sHMheklSNOlHfajDz++te/LXovFaqXPJJPAVQGaf53G4gc26ZNSWAOvpE0cKD7XhLn2A8b1vC7RVwv3zRi43j2bHeOa/jtQxrEI/FyvlRe5btNYdo5co1pv90Qft+jXOTbFMQbQ9KLfSui0LV8n0K+McHGdzGKfWvCR+IkDvl2BRvfUCn0XY1Cec8NKjYOvouBHHt+Ex6Su6kbyPLNF8J9RE6+/VEob0C+5NsvbFIPYZxp5WIgH/vWS7nxAddzHXXgQxlj4UDc1Jdff1LX8t0X+S5OrN243u8z/I7J8TvW9yXPXONDnv26kLYqFE8IstLWfBtGyNK3Ykj61InEL+0UQ8oRppe2TWkDSYeNuKgzqQvaTkhbtjRyjW2XWB8QpL+EcI18x4eNY+l7IXxDR2TJP/XAVijNEJFl89Pw42XjWL7XU4os91IhkEnbvwrVo5ClLGG7kiZ5Dknbn2UciPVdn7RyQFiYR64N0y5VL3AYfxJ9SWlJxA8KK9QhBr4DPJHj2xCuxytKU4AZnjeHeLrFX0tpG2i7NB34i2ElbGsvyhxsHFw+SZUCy3wsubWBbyMpSiUT+19LwNtXIG/yKS2LtotysKCWpJaEf5j7hz84R28+fBn7qvchgFqSlKaCN7CYePE1EEdz3rrCWZkw3n5RWh5tl+ZHLUktg1qSWpL27esVpEWLkkBFUcqFV9L5x7SA4s3Ga9GE8fE5pXXQdlEOFtSSpCiKoiiKEkEtSYqiKIqiKBFUSVIURVEURYmgSpKiKIqiKEoEVZIURVEURVEiqJKkKIqiKIoSQZUkRVEURVGUCKokKYqiKIqiRFAlSVEURVEUJYIqSYqiKIqiKBEqS0l66iljDjus+Mb/R1uwILmgjUHeyGOFwP8GYmsJHn30Mbu1Jr/4xboG/5ST8l933XeSX0op+L981Bl12ZQQH/ESv9K0xPp9U6BtphwMVKYlqXNnYyZNargNG2bM+vXGjB7NaJ0IK20dBtNZsx42Bw58loS0DuPGTTR7936Y/FKUQwPt94pSmMpUko45xpgHH2y4LV5szNKlTubOpn8yajT813/9V3kVxbZtr+t/2W4DnHdeH9sWEyaMS0IURVGan4PPJ+nKK91/2f/0U7c8pyiKoiiKUgaHjuO2+CuFiJ/TLbckATlElnPiR8Q2aJAxq1cnQglyfvNmY665pl725JMb+kaFPkl+2iwPYiHj95e+5OJ6771E0IM4iVvSETmJp5kRHx2WyNjzm+2GGyaaTZu2JFL14I8wYMBldXJcs3z5yuSssb8x90N19Y+tDHGLP8N9932vLh3i8dONIWmEhPkgvzt27Ko7J/G9/vpmeyx+FFniI28+Ei/l5bhXr372N9dJ/D7UH/FInMjhK/Lxx/+eSBSHdLhe0mG74opv5dU3SP098cRTdbK+T4rko1R+i8HSKW0nccTyIRAueSokK/3Bz4dcQzuS/2LXA/WInF8u5KSd0pCmbiSvnAvbjrxxzu8rki/kOUfchdo9LAN76tmXlXqJQbj0Z7/cYb+HLP2AepSyIV9ITlEqjYNPSUJheOstd9yzp9uXw+7dxlx1lTsWf6eVuYEXS1VMeRkyxJhXXnGyVVVOBt+oNNasJ5805uabjTn7bHf9KaeY3AxmzPDhiUACihRxEjdpsK1Y4ZS3ABkAm2Ow+uCDvXWKTVXV9eayyy42NTXrbJg/WDN4o/gcfXRHK3fttVfba2+99XY7QcPFF19or4czzjjNynXq1NH+hmXLnrfXEH788V1Mt24nJmfSw6RAPtq3PzwvvyNGjLX5PfXUU2w4kDbHhBWCycCPj3Jt3LjFll/K5UMbLFq0xKYr6XC93zZM9FxPPMSHHOWl/MOHj0qkCkO61Ov27bvq0mG/Z4+r75jSgB9Yv37n2vS6dPm6DWNiJB/UD+eIh/Yjv5Q7Lffcc7/NO3kgfslHWD+S73fe2VFX7v37D9gw+k8apN641k8rVESqqm6yeTrhhK515UJuzZqXE6nipK0blgYlH5wTaO/t23fac8iAny+5T4ib34MHD61T5AFZwjjXo0d3K0tZHn/8ydzz0dREKj3F+n2WfiBtSHkpG21Of//xj/9nIqEoFUxtJbF0KR49tbW9eycBAatW1dZ26+ZkqqqSwIRC10mckyYlATn4zTZ9ehKQMGyYC589OwnIQZyEDRyYBCQgQzjXCCIrSNps5N2nc2cXvmmT+717d21thw5ukzAgXGS9MsyePbf2xBN72H25cD2bj4TNm/eTJMQxZcodNnzx4lyZEvg9cmR+O3z00cc2/N57H0hCamtratbaMD+vEtaz53n2Gh/i5FyMME3yQ9i4cTcnIQ7yT7ifj/BaCMOkXimvz8aNm21e/fyKbP/+l+aVITdR1oULIku5fcgfcsRfDMoXqyupR7/8Un+xvkFaxBOmJ/kL2z1E5IiDcgp+/QhSD0OGDC/YxpKPWB8RmbBtpc39NpJ8+e0N0g/YSpGlbigP8oQjz8YxZfWJ3TcQazeRDdsAGcKffXaF/S31EoNwvz9DLCxtWSmntKvfhhKOrN9milJptIol6dmXVpiHF1bbbc++vUloBniDTZab/O2CC4zZutVZWH7UBM62d9yRHCQMHer277/v9j5jxiQHCRMmuH1MNgQfqgEDkh8JV1/t9r/9rduvWuX8rMaONea001wY8KbfRGfV8cHBtTkdXceMuS45cgwc6PK/d+8+uxewAvnWpSOPPMLma+rUyUlIcXhS5ppyef75F+1+/Pj8eiD/WIKwWmRBLDKTJn3X7oXTT+9uhg8fauN76aU1Sahj8OCBeWXo2rWLtZrx5B2ya9dvkiMH9bR69TIbfzHmzp1lNmyoaVBXYrGIvTkYWsuwvJAnLAFhetKPnnvuBbsvxdix/2jLKRAf8VI/UofSNqNHj2yQ7+uv/7bdr1wZLG9HGDr0iuTIMWzYlXbvv7GFtUgsfz70A99yWYisdUN5pk1zffyhh/6HufdeZxWTMAGr0PHHH1eXZ4F2o49gyZH7B1nyGt57o0aNsGX78MP8e69cspR1w4aNtk2R9duQY/qAolQ6La4kvb1jm3n3g/rlqhfW/Tw5ykD4CQCUDGDPMllTKEjduiUHKWnM0l6atLZtc/uzznJ7H+qjBWFQT4MsOfTtO8guebHcgBk/C927fzM5Kg+WcZhA/AlbQKmYMWN68isdlIfJK5zUQZSOUFGUpaxisOxIPlkCw/cDvxOWMXwFMw0szzDJUdfi51IIUaCEN95wy9TEwfXhxgTNclEaYmXu3ftMuxdFcMuWN+3+5ZdfbZCWn5dSpFmCJd+FFG6WkUpRTt3Ishv+PpxDQfOVDlkORMmIxSls3fqruvuGJdgQ4qQvh8pTuWQpq7SltK1Pmn6vKG2dyvRJCj8BwKv18o2kiH9OWfzt3yYHKWmMotK+fXJQJvhJtSAdOqTLL1YQJgYGVSYK/BlGjKiyE3dWZalcmICYHFuTww9vlxwVBiXukUdmmX79+lhFDKvB9OkzrIKZxjeH+kQRHTJkuPUloa7x08F3JSvSVuFGvpoDyhpLLy0xxScLWRTxrHXjKw+F/Ny4NhYnaQn0YzjuuIZKUnPR0v1AUdoiLa4kndz1JHPs0fUKxUV9+idHjYRvJGGRYbntO4fYF5Lb8KcOMM+zXPTMM4vMnXfeVqcEMJFntZKUA9YZrEmVABYBls1YjkRhwgqBgoljLk/wxZgy5U47qaGULlxYbeOg3rNayuCBB+6x1xfampo1a1ZE02FriW9UiUUrDVnrZs6cH9o+yMaSW6zP086xuGTDIsX1sHNnactaU9HS/UBR2iKtYkm69PxB5sYRVXbrdFRpU3dq5Cvb1dVxxeEPf0gOPF59NTlo43zlK26PEhgSe9uulcGy4b8yjKUEvwuUAPFNYRmhMYQTjixf+GBFIq3Ysg2WlyxvbIFYxWKTnSxTpLEchWAtktexgYkRSxzKEhSbyH0fEpTS2JJOGmR5hOWvEMrLq928Ep6Gffs+So7qWb/+NbuXdGQJNPThAvLdlK+S026FlGX85kpRTt2Qd5al8FVjo41QeAVZJsTvKIb0T/qutClvL8ag74QWxzT3R4wsZRVZaVuf0L9OUSqRylxuKwTOz/goAa/U+4iVie8ZCSgXvH5fCbCk1qGDMTNn5itFHM9yE2lb4phjOttJASfdcLAWh1omrnIoNLkuWfJ0clQPvj6wYMFCuxdQ4lB2OnX6chKSDpywYebMH9i9QHy89swT/+WXX5KEZif8/3WytNGxY+l8hv9agnrHkpEWykabsPwVLodSXpTNtMs98+Y9ltfuxCeOx1KH4nAdykq+Sa/QElVWSJP4QqWL+pY6LkbWukGGpSn891Bc2bieMLmeZUIUW9IP2x1/NPonS9vS30U2/IyCXHvUUf9g91nujxhZylpIljZcvLjtWrgVJS0Hl5IE+CjhH4Ty4H9ccaAbmE2/fm45jo2PMqJ4VAKUafp094Yb+ZYy4Kz+ySeJUD1MBs31naQ0MAGI4zbf+SEfbDwZM/hzTgZzgTeQkCnlrCt+Hvjs4JzMNVit9uxp+P+nsF7haM0gLs7jXMNyHwoNbwb5YG1AptBTN5MdEx/xURZkeYInPiaPiRNvLMtHBoWB/OC4LWViP2XKHdF8+mB1Ik/Uq5SRPPFNHZClmjTw9hXy+I5JPoiT8pIG7ZaG/fv317W7Xz/+2120P/VFHyGvyCHPdVhgUApC5/JyId/kHyVF6ghrCPWdtn6y1I28zTZ+/D/bPUjZ5RzwliRKBvnw+yd9m7RuuumfEkknS5jf76UMpC/KeZb7Qwj7fZayck/QtrQxbSh9L43yqShtnYNPSYLZs90eq4tYjlCeUDL4mjXLcfgw8To9YZUCnxWYP98pTFIGPkAp5W1jsFyEHxKDrTh9AmH+JwDkLSAmRmRKKUnIswzFYM2gzTU4KFdXP5RI5INfC746LKsgyzXIL1w4L29pinwBMrHlA4F0iI+JAVmWUIiPPIWvcqcFhYH8oBjU1Ky18bLnQ36EhwplyP333239vVCU3LXr7BIPeSVvhPvWmkJI3RKX5IMJlHwRV1oF8PbbpyRtUl8/+EqFSg9vZOH7Ih9FRB6o33L8qQpBvsk/5aA8pIPSIGmnIW3doFDQl+nTfnk5RpZzyADXLFq0wIb7/ZM0SMvvn8guX+4+Sirpy8dH/fQln2nvj1i/T1tWwJqELGnQhtLeEq+iVDKH8bGk5FipVPhXJXyJG2VJvs+kKEoqsAii8OLoriiK4nNwWpIORnBExwp2991JgIf8j7hzz3V7RVHyYKkIZSi0prG8hGUHy4eiKEqIWpIqCXyRcD7Hv0o+QInjOf5XTfWVcUU5COEFAv6/GP4/LCG1a9fOfqGa5SiWg9MsaSqKcuihSlIlgTI0ebL7R7ryhhvKEv8SRZfZFKUoKEq84YV/FqAc4fOFU7wqSIqixFAlSVEURVEUJYL6JCmKoiiKokRQJUlRFEVRFCWCKkmKoiiKoigRVElSFEVRFEWJoEqSoiiKoihKBFWSFEVRFEVRIqiSpCiKoiiKEkGVJEVRFEVRlAiVoyR9//vGHHaYMd/5ThIQQDjn2WJs3uzOnXNOEpAS/mca191ySxKQwP9Q8/+PWiG5Ngb/q+qkk85IvfnXyH8uV9oWtA3/m6ySKNSnHn30MbsJbaXv3Xff90yvXv1sXgYMuCwJVQ526H+33XZn8qs4WWSVyqFylCT5563877IY69cnBznkH776rF3r9mee6faNAYXoztzN8OmnSUDlwL9iOOOM0/I2/p8VHH/8cQ3OKUpLwSQza9bD5sCBz5KQtsETTzxlHn/8ydy9095UVV1vxo69LjmjHOyMGzfR7N37YfKrOFlklQqCf0tSMXTuzP9QSX547N7twocNc/uqquSEB2GcW7o0CWgExEFckyYlAZXN7Nlza088sUdtTc3aJCQfwjmPnKI0F221n8n98eyzK5IQ5VCBdh85MjKfRMgiq1QOleWTdPbZbr96tdsLWHZg6FBjOnfOtyoJEnbllW6vKIqSgcMPb5ccKYpyqFBZSpIslfFf8H1ee83tUYBQpFiSk/+SDxwT1rt3EpADReuaa4w55ph6XyaOQ5+i0NcIn6arrnLHM2e6c8jEfJKQJQx/KNLimO3kk+NLguRp0KB6Oa4njH1WX6pmgv+kfsUV37K+GfhosAb/8cf/npytZ9OmLeaGGybm+XGk9StBjmtIy/cFIV3CfMRnBTn8ciQtwoG8kUeJQ/K8Y8cuez6EtLkeWTbKEJNFTupB5ChziF9fbBzH6iGtXAzkQ5+kcuKjrmJxSThbCHXl++hQB9SvX4cch2lLu0k4abJcAdXVP7bnkAnlQNqZdiEtjtkoY9g/QPqiyHE9YezDsoYgT36A/PFb+haQr7C/+OcBGc7hayWy5DV23whhnrmu0L0Wa2uWCH38evTz4beNHw/3CfdUDOT99Ar1/UJI2YqNDaTNuULtyTnqQ5D7XMol93lYX2n7jrQZvP76Znsc5lEoJRtrS84Xa/8Q5KVsbLF+JsT6Q0y2lJzfZ0KkzCIvsoXG4UqmspQk8Uvats3tBZQmUYAuvNDtxboEv/yl28s5FA8UqhUrnFI1aZIxVVXuHIpPIedwQEEaNswdkybXfu1r7nchhgxxeZR0UNpGj87Po+RpZe5GJX5kd+92YewD6IRsLcmiRUvMrbfebn2X8M044YSuZtmy53N64dREwsGgwIRSU7PO9Ot3rpU9+uiOdrLhRkwLNyLxX3bZxebaa682e/bstemHEwAg98EHe21axx/fxXTrdqIdCAcPHmrP9ejR3Z4jP/weMWJsg4Gdm5s84reFLOlSBmT9AY3BFbn9+w9YOfK2ceOWnFxV3kDLMfkVOTbgWn+ATyuXlnLjO/LII6wfGgO9z4YNG5MjNxgK1C9t0q9fH/u7vt3X1tU3dQOkXWjShYsvvtDWN5AHrhVfuUKQFvUu6Uj/8PPo90XiR5Z+Qhj7UiAvvnlyveSLvky5pL9IPyDuWB+dN+8n9j5AlnuI+o5BvUrZiNPJd7H9dvjwUYmUgzqVthZZjqdPnxFta+5h8kGbOdn9df2CeOTexv8KP6xwgkQOeelbUuaw7xci7dgwcOAAu3/55Vft3mflytxYmWPo0Ny4moN7s6rqJls/Ur9yn3P/U58hUr9ShrDvnHrqKfYc0N4cExajmCx1Qt2QlvQfKS95TqMoZelntJffH6RsyPr3RVq5rFDn4Thc8STLbpUDfklswqZNzj9o+nT32/dPEvAdImzVKvcbWX6H/klc26GD24SY/1HasN69XdjAgUlAwuzZLtzPo8jOn58EJHAt4Zz3YP2brSlI65PEtnHj5iTUMWTIcBu+ffvOJKS2tn//S2t79jyvgaykkxukk5A4IhfGwTFhbB999LENk7z5YQL+AZxbvDi/nflNuO8/IGHjxt2chDjIK+H33vuA/S1yU6bcYX8LpC15E4g/li/qjE1IK1eIsCyNiS/WFyg78RHOeUHqQnx1pK7CfhSrG2k3P760YZSPsLCtYm0jsqE/EdcS7tdbIWJ1ImFhP4j1UZFNkxbE0gPagXtL7gmpG9rUb2uOCfPjEFk2/57yw/30uJ8J8/Ocpe8XIsvYILIhhLMJ5IdryZ+PlM3vJ1n6DhCWtt1CWb9ewvJKnil3MbL0M2kz6sbvD8gSLvd+Wjmpv1gewz4qsn5+DhZaxZL07EsrzMMLq+22Z1/pp7k8sPxgiZHltOXL3V78lfBJ6tYtf0mO5bgOHVgbcL/vuAO1o6F/EteeknsCaOq31saMSQ4SJkxw+/ffd3vKgs8UlqlR+U+KuUfF5CCfbdtet1tLwhP16ad3T345+vZ1y4A8hQBPIRzz1BTKTpgwzu6fe+4Fuy/F8OFD8+LgmHh5+vGtG4BVy38y5+kRiwhPxsOG5bczv8ViIk+Zzz//ot2PH+/yKIwZc519giNNELlJk75r9wJpk1/k/Cdqfu/enfTVhKef/qndfNLKpaXc+Pr0Ocvu33jjLbsHnlqxDPGUvGXLm0koL4yut3UzePBA+5u6ok+ed56zLAnUDe0jddhUDB16RXLkkHaWN4x4SqeNaWvJoxC2c1akjcN+QB+VfvDSS2uSUEf37t9MjtKxa9dvkiPH1KmTzerVy+ruCbGojB49Mq/vczx+/D/bY5ERwntY2oq29duta9cudu9b27L2/ZCsYwNtFsaJJYo4xHoJWC9i9znlobxYrUKLTam+0xTQ/uQ/Vl7qkHunWH1Bln4m7cPbl35/QFbqi3pIK1cO4Th8MNDiStLbO7aZdz+oH7xfWPfz5Cgl4pe0apXbv/pqvgIEKBsoHvgCAQqIKFE+yLDkxfeOWGLDVyjm9N1YevZMDgogy4GxzxOc1nZew5eBsxgyuaJ8YNINNwbj3JOMlSlFzLzdu7ero3ACCScgUdpEiQsReZF7550ddtCKlXHDhhozY8Z0eyxLUbIU4W8ffrjPnpO8yUCMuR2TOUsjsUExrVxaGhMfAyX1IMoQgyXtRX2hKFFPgihPIVzDhIjvC2mTh3AJrykoZcrfuvVXdh9TTtL05WLQb5iAYxOC9Nu9e11/EAot14Sw9Egb8DkE/DpY4mJZJZy4ZEIPFUAQhSec9AuVmyWgGHJ/QJa+HyPr2EA9gL/kVr/U5vq4LA2hLMTiFKQvCC2xDCTtL2OWD/0GhcKv3xhZ+tnOne6Br0uXr9u9z9y5s+wDEvGklSuHrA8ClUBl+SRB6JeExShUgHr1cnu+jYSvD5zlnpAtKEfitI2PEd88WrzYWZLYmprGxuk7nLci7dqlf7uHAZV19HArNSi0FgyyDFppiZWNJ1ofJq8HHrjHPuUy+DO54AeAU6nvS5BWLi2NjQ9/DpkQxWLXvfs37EY98TTP5MTxuefW900mcSb0vn0HWd8GJnnqpFOnL9sJsKkpdyAXmHzaIigyjzwyyz7Vc79Qh/gYUa8onY0hyz1ciDR9vxhpxwbqgT5cU5N84y4HViHCQmWPa2NxFlLOG9t32iLyfbHQahWSVk5xtLiSdHLXk8yxR9crDRf16Z8cpQTLCstpLKGhALE05itAIEtWyMiym69ITZ7MF+LwDjRm6VK39PbJJ86RG8WprdEc1q1mhklalgRjW1uDJ3ffSlIMBulYmWSTpQNAYeHJbM2aFbZOML0Dk548BUNaubQ0Jj6UIUDuzTffsnXDgCpPiVu2/FuuS7o3Sv0nx5kzf2AnSyZ3JnnqAiscT6eFLBWtSaEJtC1AfVNv1CF1iWMtiqZYcVqLLH2/EFnGhmuuudIq41hCZantkksuSs7WQ/3E4pItXAI+GJFPVFBPxUgrpzhaxZJ06fmDzI0jquzW6agyBk8sK2+9Va8ADR7s9j7I4PPDchyWHH85DgWJMJSi0C+pNRQSeTsu9jVxWTKsEMSEG3srBUsD1gxeX03Dvn0fJUf1yOQcMxX7iOVizZqX7T5ElpNQAEB8ZmJvwvDWG0tGINaZmByTF8sjsrTFNfKKOU+uKC4s202ceKMNk+WHtHJpaWx855/f1+6pa39Jjad3WYojPHyid1ajjnZyDyel1lBIpA/I8oJPrP2yQNyUKVwCA6nfcr+rhLXIf3OVusQfCWUJpO927Phlu48tpYoi3JTfdsrS92OUMzZIX+QaWWrzrZeybIaFKYbcu41t73Lo2PEou5cxy4fyyhJ/MbL0s+OOc/dibMlT2gfFKK2c8NlnDb+A7/smHuxU3nIbsJyGBenJJ52yE/Pbwb8HhQfFI+aPhOVInL8FluBaA/KPUsfr//5nAWBq/uv1bR0mZG5sJszwSQVLA4qI3KSlmDfvsbzBgfhkIiadYjB5s5zCoB4uMfGbgYfzYnIW/4cFCxbavUCayLJkBDzZwpw5+U/zyPF6Na9U9+rVIwl1ykFYD+JDIIMopJVLS2PiQ7FiQkQRov58axEKk4TH/L0ofzigx15FbwmkDzCBhtazsP2yIv2PPu0j/YDJ7/LLL0lCy8P/H3Ygy1GiHMlr8vPn/2tenXM8Z84P7XHooNwYsvb9kHLGBvoilkn6nPtsQJ88xZzzWEmpm7C+5D7v0KF93jUtBQoe/aBYeXG+LkaWfiZj2OLF+f5rHKO80j6Md2nlCimgpE29HipUppJ0wQVuX0gBAlmCQxEKHaL5VhFKFooJH39kY5kNyxJLeWlBqeHaprD23HWXc0DHRwpljXhxJPff0vNoje8kpWXatMn25sVxmAmSpxOe6BgsmHwxjaeBm5XvwvBkzYafCwNLGpM+8PRNPlhi4gmVfJAffhN+003/lEjWv/FGHsmryJImsqNGjaiTY6Bm4OCJCzk/b1hrGLiBt46Ac8ggSz7wlaAe5I2atHJpaYr4UIBQhECW3wCFiXKCvAkn0K5u4B9l02SjjvApId20YP3j2qZ4+qeNaT/qQvoilgUm3cZAH6RM9BfiI95C/SArKDbkGZ8uyTP7KVPuyOuLWJioc9pJ7hNkOSYM5aEpl5my9P1ClDM2YDlCCWLzrUgCb36hfFFf/r0bu8/LAYsPcaZZ9vZlqYvbb59i68bvf1nGwiz9DEWQ7xNJfxBZjqk7sSSnlSNexkTCpL0pA22X5X6udCpTScJ6JMpM7I0w8JfRxNlbmDbNKUpYk/h45Lx5TtmqqTHm6qTTxr6ILRA316Okcf0bbyQnGgHLgViR8JNiOZB4KWdoWaoAGJjF8ZQJksmZwYNBu7r6odSTBwMMlgv8MNg4XriwuqQVSWAwWLhwnk2XSZF8kB9+Ey5WJOGxx35kBw9ee0aWgcmlmS/LchJyDMDIkTcGaXwtfAWEfFIPUgZkt2/fZa+lHoS0cmlpivjkzRnK6JddFKYwHIjfKUruA4U86Ur9iR9JseUYf9Ln+qZQksij9EXak3ixChLWWKhLysxkRbzSR4k7q2Lr4/dbuX/Y41BPuG8V4UHgzjtvs+0hbc0xYfJGZlOStu8XopyxgXhJD2T5zYdrFi1aYOPw713SIK2wn2aBegTijC2b+cRk/XtR+p98bLFQeUOy9DOUKtrCbx+OQ9m0cg8+eF/ePc04ynWF3ho+GDmMjyUlx0pbBEsYVi6+ws0beIcAPLFwQ3LDNuWTsKIILC3wthgTa3MoE4qiHBxUpiXpYIT/1RbziZozx+0LWcwURSkIS9IsEYTw5Az+UqKiKEqIWpLaCnzMsrraLSOy5AZ8wgDnc8LeftuFHQKoJUlpKvC1QCHCh0KWCHgzB8dTwvhMgqIoSiHUktRW+NGP8EB0x/gjsfGPbQnDoVxRlMzgs4M/B6B4s/k+IYqiKMVQS5KiKIqiKEoEtSQpiqIoiqJEUCVJURRFURQlgipJiqIoiqIoEVRJUhRFURRFiaBKkqIoiqIoSgRVkhRFURRFUSKokqQoiqIoihJBlSRFURRFUZQIqiQpiqIoiqJEqBwl6amn3D+BTbu1BSTPt9ySBDQzpBf7J7lNAeU4x/3vq8byi1+ss/94NO3mX8P/dVPaHrTNddd9J/nVduC//d9ww8S6vsQ/uyWf0q/Kodyy0ne5lr7cUrRGmm2JHTt2NWirxra/cmhROUrSl75kTO/e+Vvnzu4c/wA2PHcoctVVxrz/fvKj7dK+/eHmjDNOy9s6depoz/FPR8NzilIuM2f+wNTUrLP9iP/XNnDggOSMcijAPzjmnxkrStnwv9sqlkmT+MdztbVLlyYBhzjURe/eyY8mpjnjzjF79tzaE0/sUVtTszYJyYdwziOntD1om5Ejq5JfbQfyRN4++ujjJKT1KNXHm4PWSLMtIe2vKOWiPkmKohz0HHnkEcmRoihKeg5uJQlfoJNPrvdTGjTImNWrk5MJyHDu7ruNOeYYd8w1773nfHD4vXmzuzaMBxl8gFgKlOv8+GM+SX6cXCtxcu2CBYmQB/EhJ3lj49iPU8oA69e7Y/88cZBnyWd4vY/ISlqkTTnbEMuXrzRXXPEt61fQq1c/62eC70nIpk1brD8KMsgOGHBZap8m8eUgLUz2EgfpEuYj/lLIib8DaYkfCHkjjxKH5Bl/iRikzfXIslGGmCxyUg8iR5lD/Ppi4zhWD2nliiF1LnEUy5PfNpJeWLcQ1gd1HJPzkTaRpRa5FkKfFJElnSeeeKouLWmnsG9xLvRzyVp3fpnYF5Il3I+3UH1CGGepOgqRflqs/BxLm4X5oP8THpal3DKIrN/3OU94zMfKb9dY+0ubhe0vxNqQ/uCTta8olc/BqyQxuc+cacynnxozaZIxVVXGvPKKMRdcEFdGkEV5QBaFRfydoF8/Y/bvd+cGDjRmZW7wmTDBKRPEOXasMcOGGbN1qzFXXplOqRgyxF0reeOa0aOdYiWgsBDfihXGnH12vSyQ3+8kA/VZZ7lzQL45JgwkDvJMfjlHObmecvr4spQHWfI4fHgiUI8MFuFk0dwsWrTE3Hrr7dZ3CR+TE07oapYtez6n801NJBwMwuPGTbT+KP36nWtljz66o6mu/rEd/NLCYEj8l112sbn22qvNnj17bfrh4AnIffDBXpvW8cd3Md26nWgH+MGDh9pzPXp0t+fID79HjBjbYLKgPskjflvIki5lQNYfgBmQkdu//4CVI28bN27JyVXlTY4ck1+RYwOuJQ4hrVwx3nlnh03/wIHP7PWSd9rBzzt1R1rbt++yMiIrdevnn4mXPNB2yFFO6rhQGwj4uCEvvm4csxWDdKdPn1HXToX6VkjWupsy5Q7bj/v165MnS1/zSdvGILKALGUgT1u2vGnDSkH7VFXdZMsrdS39lP4rigoWudtvn2KP7733e3YPjAePP/6kvS8nTBiXhGYrQ9q+n4ZY+1988YX2OAb9TNqQPCLPMf0h1obl9hWlAkmW3SqTQj5Js2e78GHDkoCE3btrazt0cJsgccT8bQjj3MCBSUCChIfXkJ6fH/b8Jg2hUJyxPE+fnh+fECsHIBvmqXNnJ7dqVRKQIOUmDUHyFqYXKa/4CDWVH0panyS2jRs3J6GOIUOG2/Dt23cmIbW1/ftfWtuz53kNZCWdefN+koTEEbkwDo4JYxM/F8mbHyaIT8Tixfl1ym/C/fqTsHHjbk5CHOSV8HvvfcD+FrncZGt/C6QteROIP5Yv6oxNSCtXCPLDFtYreSbcLz/li6Ul9eiXn99hH+M6wqU+iiH17xOGFetb9CPC/b7Fbz9PaetO+hRx+rJSHsKFLG0s+Q/ryS8Xx8UgHeT8doJYmwC/Cae9yZPcb349ZSmDyJbq+8XGiTRtDWGYlJG2CtuFMD89kWVL01eUyqdVLEnPvrTCPLyw2m579u1NQpuQpUvd/nv1TzoWrCxYfbAuhdakM89MDiKMGZMcJIgsb5P5fOUrbp/GkhTGiWUK/LfT7rgD1cRZd3woxymnuHIUA6uULAkOCN7qefBBt3/ySbdHjqU63hQM07vrruSgnvPO62O2bXvdPPbYj5KQloG3lE4/vXvyy9G3r/s0AZYI4KmWY55EQ1l5yn3uuRfsvhTDhw/Ni4Nj4uUpc8OGjUmog6dJ3/eFp2/M/TxdDxuWX6f8piycl6f0559/0e7Hj69/EocxY66zT9ekCSI3adJ37V4gbfKLnP+Uzu/du/P75NNP/9RuPmnlikFefXr3dvfK3r377B7mzp2Vq7uaBn5C9CnAEuWD5ci3JHAdfW/q1MlJSNMQ61uDBw+0e+lbhchSd8Tpl51j0vbTyNLG69e/ZvdDh15h9wL1ibUqDVhBYv2UOMgbFh2/De6667/ZPplTYuwbhOR97Nh/NF27dkkkspUhbd9vDlauXG33o0ePbNAu48f/sz0WGaExfUWpLFpcSXp7xzbz7gf1g8kL636eHDUhTPYwZ47zvfE3UUK2bXN7QZanYvTsmRwE+EtyPmlewy8UZwwUGBQe/KZYYmOZTMpYjFdfdXuWAcN6YCP/nINf/tLtWU4MCRWsVsQfhAvxxhtv2T3KB0sY4YYJPve0Z2VKceqpOWU0QCb+Xbt+Y/dC9+7fTI4cMliKEhci8iLHchUTQqyMKBUzZky3x+JnwfJGWLYPP3TKiORNJk6WN1hmZFkhXOaAtHLFYJLNAu2DQku+WdLAvyOEpQ/qp2/fQXY5BtlC/iyNJU3fipG17rp0+XpyVJgsbSxKtkzSPscdV7pMtAGgiIRpsQlbt/4qOXIKBMtuXIOChdIQKshZypC27zcHe/d+aPex+hPFXWSEcvuKUnkc3I7b+N2E2xNPJCczUEgZagxp4hQrED5EWK3uvNOYxYvdtVnyhEIVq4s0Fq82Rrt27ZKj0jBI4+MQbm31SY8JB2tUWmJlY8LyYeB/4IF7rAKDYsiEhe8Fjqa+T09auWJ06NA+OSoOSg4Kz5Ahw62/EvnGTwX/jhCsReJbIu2JMoJC1dTKUpa+5ZO17g4/PH06ftvKFrZxU8F9EUtPlJ2QXr16WMUGwgcEn1icYRmy9v3Wpty+olQeLa4kndz1JHPs0fUT/EV9+idHTQzLRs6TJr7JclNbZvJkp9Rh3WEJkXx/8olz5EZxSsv8+Q3L728HKUxcLMsU2toaTDg8UaeBCTlWJtl851kmcZZ91qxZYeuE5ULA8VSsCJBWrrFMmXKnnXhRfhYurLb5Xb16WUFrAWXh/DPPLMo9J9xml5CY0EOH8NakOeouSxs3BVjtYunIJlYVAWUH5QYFluOY0pq2DFn6vqK0JK1iSbr0/EHmxtzTIFuno9zbB00KChLLSLxmH8IyEwpG7A23tgYKEhYjlKLQTyjNcttJJ7n9i269Pw+sSHwSgDfeQJb/eLMthLfeKghZznj55WS50YNJlSd8Xi1Ow759HyVH9YgPSKllE3mzZs2al+0+RN48kqdxnqSZdGT5xAfLi7yVJxaLmBxLGVhZZLmHa7gWWCJhMkcZmTjxRhsmS5Np5RoLCgMKDkoEE6Tv1xEqE0y6lIUyAUsc+Mzg0yR+Yf4SUGvRHHWXpY1l6Se2xLdzZ8PrQ3gLE/A7iiF9z88LbYXFjGW2adOcb9hDD/0PuxeylCFt3xdCvzUoZPEqRceOX7b7WP1Jn8xi/VMOLg7O5TZxip4avI7JZD9vnrPG8CmASoC8hstiLMGlYdQop2ShbIWKDlYqHL9RKAE5+YzB97/vwgSW5ioIJikUFEz64dMtTqYMxml8NWDevMfyrBXER7zETzrFYPJiEmGiCJdd+M2g7juAyivKCxYstHuBNJHt1MkN5tdc4xTmOXPyXxlHjlfL9+/fb5dCBK4N60EcqTt2PMruIa1cUxD6eFDHc+b8MPnlOOaYzlahYvIKLUZyvSiirU1T112WNhafqPnz/7VBXy2k+Pig2KF0UtePPvpYEuqQfspSqihjpMHr/yj3LIdiYeJ65Pzrs5Qhbd8v9AAU5jsL8q9qwvrz+2ToFK8cOhycShJvisn3jLAaYT3C4RlrDIrB9OnZfHpaC76JRH75X3TibE15sCyJchPyVu6pFTn53tLs2TiLOKUQ5YpzfNASxYk4xo93cnDrrU725pvrZUkvYl3iCas1vpOUFp5uGcTxX8EpmCdX8oqCwxMuSwtpYCAfPnyUdcZlY4kHJSvtUgeTCPlg2QXrFfkgP/wm/Kab/imRrH/jjTySV5ElTWRHjRpRJ8eSExOgWFr8vGHBYOID3tgBziGDLPlgeYR6kLeZ0so1FiZU4mPikzKSHt/iAcopUAZx3KYNkGXDqsD1nGsLDrTNUXdZ2pg6oC5QxqWe6Df0/bTwBhoK56xZD+f1vVg/pVyuTYbW1T/XI8fbbmINylIGZNP0ffGD8uXYk24xhZl0C/nW0Sf9+pM25JgwFMBwqVE5dDh4HbdRJPgYIpM+lpDqaqcY4Z8jr9u3daZNc4oS1iTKgBWMj0rW1BhzdTLJ+8uGKESArCyxoRiiMKE0UiecQ5HCasRvX1k87TQXt5xDlvqTTypUEAxqjzwyKxmk19qBHZ8HBrzq6ofqBudS8AYPDsUsLbBxjB9NKSuSwCSycOE8my7OyeSD/PCb8PA1Yj6pgK8Or70jy2Tg0syXZckJOSYM5MgbkwT+MP6kTD6pBykDsnzEkWupByGtXFNw//1323ZB0XH1sc5OuKRD+oTLEz1KJn5IUk42IKypPwFQLs1Vd2nbGMJ6oo8x8bOlgfth0aIFtl/6fY92omzS92SZDeXPf1DgepQelB+UDCFLGdL0fdLht99/gDzyEcwQlDvSI93Fi+NKEvj1J23IMWHN+Wad0vY5jI8lJceKoiTwJMlAyeCrT5GKoiiHJgevJUlRFEVRFKURqJKkKIqiKIoSQZUkRVEURVGUCOqTpCiKoiiKEkEtSYqiKIqiKBFUSVIURVEURYmgSpKiKIqiKEoDjPn/AdU9LF0k7la/AAAAAElFTkSuQmCC;" parent="1" vertex="1">
          <mxGeometry x="-1000" y="-280" width="585" height="176" as="geometry" />
        </mxCell>
        <mxCell id="ozPqzId16DCcdo8Aqhm_-1" value="&lt;h1&gt;Questions need answering before implementing:&lt;/h1&gt;&lt;p&gt;&lt;/p&gt;&lt;ul&gt;&lt;li&gt;How do I prevent the OS from interfering with my own job scheduling logic?&lt;/li&gt;&lt;li&gt;How would I watch a process and detirmine whether it is in the waiting state?&lt;/li&gt;&lt;/ul&gt;&lt;p&gt;&lt;/p&gt;" style="text;html=1;strokeColor=none;fillColor=none;spacing=5;spacingTop=-20;whiteSpace=wrap;overflow=hidden;rounded=0;" parent="1" vertex="1">
          <mxGeometry x="-1000" y="-760" width="640" height="120" as="geometry" />
        </mxCell>
        <mxCell id="kRaXp9S4WBG6ZjZeYn0J-1" value="" style="endArrow=none;html=1;edgeStyle=orthogonalEdgeStyle;" parent="1" source="Nem7usS77iA_jL6YwA_9-4" target="Nem7usS77iA_jL6YwA_9-6" edge="1">
          <mxGeometry relative="1" as="geometry">
            <mxPoint x="610" y="340" as="sourcePoint" />
            <mxPoint x="650" y="410" as="targetPoint" />
          </mxGeometry>
        </mxCell>
        <mxCell id="kRaXp9S4WBG6ZjZeYn0J-2" value="parent" style="edgeLabel;resizable=0;html=1;align=left;verticalAlign=bottom;" parent="kRaXp9S4WBG6ZjZeYn0J-1" connectable="0" vertex="1">
          <mxGeometry x="-1" relative="1" as="geometry">
            <mxPoint x="-40" y="20" as="offset" />
          </mxGeometry>
        </mxCell>
        <mxCell id="kRaXp9S4WBG6ZjZeYn0J-3" value="child | 1" style="edgeLabel;resizable=0;html=1;align=right;verticalAlign=bottom;" parent="kRaXp9S4WBG6ZjZeYn0J-1" connectable="0" vertex="1">
          <mxGeometry x="1" relative="1" as="geometry">
            <mxPoint x="-10" as="offset" />
          </mxGeometry>
        </mxCell>
        <mxCell id="1MZX9nI7duf9BCnq68QD-1" value="&lt;b&gt;&lt;u&gt;QueueItemGenerator&lt;/u&gt;&lt;/b&gt;&lt;br&gt;&lt;div style=&quot;&quot;&gt;Generates new processes on timed interval&amp;nbsp;&lt;/div&gt;&lt;div style=&quot;&quot;&gt;and adds them to the ready queue.&lt;br&gt;&lt;/div&gt;" style="html=1;fontStyle=0;verticalAlign=top;" parent="1" vertex="1">
          <mxGeometry x="520" y="40" width="240" height="50" as="geometry" />
        </mxCell>
        <mxCell id="-42A4s9kj0HnF6taIo56-1" value="" style="endArrow=none;html=1;edgeStyle=orthogonalEdgeStyle;" parent="1" source="1MZX9nI7duf9BCnq68QD-1" target="9krkrCmCOc9bY8GKS92m-12" edge="1">
          <mxGeometry relative="1" as="geometry">
            <mxPoint x="650" y="220" as="sourcePoint" />
            <mxPoint x="610" y="290" as="targetPoint" />
            <Array as="points">
              <mxPoint x="480" y="65" />
              <mxPoint x="480" y="400" />
            </Array>
          </mxGeometry>
        </mxCell>
        <mxCell id="-42A4s9kj0HnF6taIo56-3" value="use | N" style="edgeLabel;resizable=0;html=1;align=right;verticalAlign=bottom;" parent="-42A4s9kj0HnF6taIo56-1" connectable="0" vertex="1">
          <mxGeometry x="1" relative="1" as="geometry">
            <mxPoint x="-10" as="offset" />
          </mxGeometry>
        </mxCell>
        <mxCell id="-42A4s9kj0HnF6taIo56-6" value="" style="shape=image;verticalLabelPosition=bottom;labelBackgroundColor=default;verticalAlign=top;aspect=fixed;imageAspect=0;image=data:image/png,iVBORw0KGgoAAAANSUhEUgAAASoAAAEmCAYAAADV+N1UAAAAAXNSR0IArs4c6QAAAARnQU1BAACxjwv8YQUAAAAJcEhZcwAADsMAAA7DAcdvqGQAAErOSURBVHhe7d0HXBTH28Dx31+KiCgINkRFRUWxgF2xxxZ7rIndGGOJsSSx91iSGLvG2Ftsib1F86rEXrBiR6yoKIooSJNm3tm7RQGxQcqZPF8/5+3N7s7O7t0+NzO37PzvDwUhhDBh6fRnIYQwWRKohBAmTwKVEMLkSaASQpg8CVRCCJMngUoIYfIkUAkhTJ4EKiGEyZNAJYQweRKohBAmTwKVEMLkSaASQpg8+aPkNIqMjKROvcb6KyFezcPDnVkzp+ivxJuSQJVGERGRdOv+OSNHDtFThEhZREQE06f/yNIl8/QU8aak6SeEMHkSqIQQJk8ClRDC5EmgEkKYPAlU4t1x8yS7dnlx6qb++rVC8D3oxa6DvmpKvMskUIl3x7W9zJm7iF3X9NevdZ+TaxYxZ42PmhLvMglU74xIggMCCAyNgZgQAtV0QHCkPk8XGUxAwF1C1CKG6cAQtEmDhHUSpyVhzP/Z+skZ8n75+jGhd43zk5fJ4DV5J5fStrS08FjDZGy4fhwSJCwfEKy2lCCGkMDHPHmqJp8+ITTJPG0Vbflk+QiTJddRpdHfdx3VHia2ms/lkqWwu3SKa9HG1PRO1fl8WDcqZdMWmUrLWbep8r4j57xOEZK9Md9Mq0XYqnnM3nKBEON5joWdG417dKNtGW0lCDo0j2/nHORmVJzhNekdqNZ1BH1qqPkxdzmwaDKzve6ib9Kw/odfDeCDIpZq/kU2fjuTX86FomefpExa3uN+3EvAs5VtKdG6N0M+KIpaO5kgDs+ZwA8pbStwltq343oq5G4+imkt4l/YNukdqf3ZIHp4PmJlv69ZH6CnU5Zea76g8t0DLJqwkF0BCQHKHLvizek/pCna7vyV5Dqq1JMa1Tvm4ZnLZOv0HT+tWcyCYQ3IeX8vM+btSNQHE8gBrwCKfTyU6YPfx2b7fCat98O2wUAWrFjByhn9qG3rx/rJ89kepBb338S0H/byoFALvlu6grVLh/BBzlD2zVvIjlDw2zCdWV5heHTTtvl8/eVz1uOnVj+7cjbLz2Xk/VHzWavm/zTqfbIF7GX2am8I3cE8lfejEp2Zqba9dsUkurvHcnbFz2y7YyhsEiE7FjLDK5QS3Sax0rCtzrjHXGD5su3cqfEFa3uVNSxXodcKprUpzJ1tP6ttm+PZV19+wUAaZ73Lrrnr8KYwbaeNormTWsFJBWwVpGqqEm9U+73rcUm6T9HKu5iZA2pie2k1c9ZpeyNMlQSqd41LPT6skwdrVR+x82hFy0rWxPqc4USiFoxLyy/4ok4xnHIGq6B1ntgsNenQ3h07VWOwdCzHJ+1rYh97nl2/X+XakcNcis3F+x82oaC1Wtm6OK3bN6NKhaz8L+giRw/eIta1Lk3d0vFINZWCnuaiasX8EHCMo74quDxS0UyJDjc2rayLf8jomd/z7Ucl4EEoD7WqTkwUYVGqgJaO1On9HdOn9aBGVsNqSTx8FGKoGcVGPibSsHgd+kz5num9q5PC4vwvXw16dO9M0yqOhtqZpW0uHGzVRGRUkmbeM77HOOAfh2uDBrile6SafkE8dapEpQJw+/Ax1O4IEyWB6l2T1Z68+qQ6NXHIaqee73HvhjFFk9U+YYlb+Purp8L58DAmGHnko5B68r+l5qsH5MKxsGGOgaXHB/Tr25U6Be9x965KuLGDyWO+ZYz+mLzzAQ720YQ9VLWbD9pQweEBOyYPpmPbT+g6cBKrdl8lKoOKei41aNvQhT8u/sLQrh/TrstXDJv5K6eCVUBLoZlV4L1WNCr0lAvLx9C13cd83Gc0MzefIvgPLSy/yLFwHiyCDjG3z+d0//QT2rTqx5IL+syUBN5Hq8jd2Dbz2b6MGTOTnUFZcIiOQO2OMFESqN5xT+O13uIsZMlhfJ1UBqy1WlLUk6Q/z4c+4Yl6ss6QAXMzczUVz9PEfcp653RwpL5+idbMnPsDc5M9enqqoJb/fQbMWayaXZMY06c572V7yIH1cxkxfhM3yUaZzmNYtnI+c7/tT/dGrsRf8WLJ2NHMP5J4g7psZej8zUJWLZ3Bd0O70Ngtnss7VzFm2CK8X1g8hB1TxzJzy21yN/mEAaPHMVs1L3tV0GenxErtj3oq0W7KC/syd2431O4IEyWB6l1z7QY+z05aP04eDwSnArhoTZ4XuFKosApEF09yWOuP0gUdOskFzHEt5IpL/nwq5RIXjidkGoPPqq/p228mXnf19S+c4aCxhaeo+Qv70LLVN2wPvcqG0ao2M2I9N2wdcavYkLYDvqFLWdV8u+6P/6F5dO/+ObP2m+NQsBTVmnfju6/qqvpbONf8tZpcUofmqLy6z2a/uQMFS1WleY+x9G+QE8JuqJqfvtAzPpz2iYPS79OzdikKOjlixzWCHuizU1K0AK4WandOHXoeuGN8WPhZO1qO/S1pMBcmxWy0ok+LVIiNjWXL1m1Ur15VT/mr3ODQmpMERF7jlGo7Pf1fIN7LlrHtqgWVPu5JI2crtcgRVh+7Q+7yLaisxR+scMkZh/ee/Rw4eo2Yp0/wP7GOhWvOEpWnCb16liFfAWse/n6E3YePEIgZQd6rWLz9FukrfEi3RkUokj2a47v3sO9YIP8zD+Pir3NZ4HUf6xpt6FO1BH/c+I3th8/ie+8PLMLucGHfatYeCsKiXGM61rPBb/0Rjl+8THi6WB7cPM3Wlds59yQX9dq0ppiDYceeyfTwDOsP+nDBL4x0cQ+46bOdFVsu8iT3e7T5qBgOt46xwTuApxmsyGTrhFXAYc5cvEnA/yyIuHqUdXMXsfvO/3j6NCOFyrvjYvcEv127OR9sQaZMGbFzK0+hmJP8vusgxwzl9WXrrJ/wCsxAzfa9qJbbTC/JX0P7rHh7H6PZB3JboLclgSqN/vZA5VaTFlmus+PAeW6nc6Hxp71p75lNhRjlzlm8/B6Tt0wDyuUxrAQOxajpmRfzwPMcPKhqUnctKNKgI1/2rEM+bSWz3JStXYIsj3w5ckDNv22G6wcf80WHyuRQ882yFqeqe2ZCLhzjwLFzXA21w6NxZ77sVI7MavUcHmUpZh2H/9kDHDnpi1+QFcVV/n3aVyJbRhcqls5B/KMrHFPbPnPhOjE5q9C6T0+aFFJVm2SsXMpTJlccIX4nOai2deFqDDmrNaNP78YYFnfMjPlVPy5e8eW+XVV6tHbH7N5lvI+d5sK9OFxrdqFXs9w8vOHDmZu2lPYsg4tNMBfPX8HvQjwFGpenVAlPPLI84oIKzMfPXOdxlpI0+rQPncpre/PXkkCVenIdVRr93ddReVf4lLX9a+hp4l0i11GlnvRRCSFMngSqd4YlNvZZcLD5iy+fFsIESaB6Z3jSU/sZvYf8iC7+eyRQCSFMngQqIYTJk1/90kj71a9N2840aFBPTxEiZTHR0Rw8fIRfVv2kp4g3JYEqjbRA9UHzDylS1FVPESJlcXFx3Lt3n/VrVuop4k1JoEojGddPvCm5jir1pI9KCGHyJFAJIUyeBCohhMmTQCX+vd56eC1hqiRQiX+vtx5eS5gqCVRCCJMn96NKoz/lflShvhw8cJpg89xkCDzGAZ9L3A5Nh62DHVb6vdxCfA+q9AeYF7Dl8akjHLv7Pwo4GkYyIPj8CQ6ducS1+1HY2mfHOtmtniJvneLwsQtcvnafOIfsOCRkqokJwf/MMY6fv5Ly+pHBXDhxmNO+118ok3a3z5AbZzh63Jj3E1t7siXfeAKtGXbsGjEOWYm6qMqvtnc71IJsah+Ma9zk1K7jnA8x1/frxbSbJ704di0G+6z/45qhTAGEWmTD0fYPQi4lHLdEeT67kWB98j4ybjMoyhb77Nb6NnWvOgbPyp0Tc3+1jUvh2OfNipU++23I/ahST66jSqM/5Toqv5/pN2wL0TmyE/LwMRkzmRP1MJyndhXo9k0famZTi6wawND14Ob2mAsXwkG7L1UnS+aMn8+uAMhkn1EV5hFhJIxrp43ZF8TuqaOYdygCc7tMpI8OIyTKigq9xjFAG7Pv5g6+G7uC4xHm2GXKQLxh/Xy0Hj6K1kUsifFdw/BxG7mVzpbMGVTMCgslLmNCmRLyjsJKbdsyNoLgMCjQciDjPkxhzD7DmINXcHaOwz8QHDLE8TjkCekKtGDUhOYUTvF+W0nTdk9qxyy/PDjH3SKQLFjGqPI+zUFZd0tOnw4io3YIVJ5Wnj2Y+kVV7AzbPE6mTDaExSTe5geMGNvKOI7fa45BQrld3Sy5duE+sdrQW9M+UuV9e3IdVepJ08+EBIU50XX6QhbMncvisQ3IEeLN4p8PPR8tmDtcjqjEoBmL1Ynrwe6li9l1PwfNx6rl5/7A4nnamHxB7Jq7nN2hxnHytCDl1uk7Fs7/gQULBvOBUzjei7Vx726yca46QeM96GXYpnH9xllvsGHZdjU3gG3LNnLNuib9F/zI3Lk/snBgHexUmbb+fhWOrGPxoVAKdfresO25i77nk5JPubZpp8r7ZVTNJa4a4xbNZe782Qx634Hoa17s99Fnv4lHt4ivPoT5i1R5x7fAJfYex09npt3k2SyYP5mPPcwJO7SLPYnGDQzLnLDNhczoUQqzaxtZvFXrYX/dMUgQwqVbOWj37XzWpjJIibSRQGVC7KvVppZWEVIsizSkXklViznrx/MRoOyo3b4z5RzVN33MCdWMiMSi9Pu0TBjiVxuTr5EHFpHH8T4ezolTZ4m1rkTdRsZx77AsSqMen9Gjgwf2dy5w1i+OzIWciD/tZfh1bNehe6TPkYlYv/OcTxjMIfw8+3ac4kpwJJYenZm9ZgWTP3TRZ8KtY9vZe14bqj0b9UcsZe3KPryqEexer6E+IrElHi751XMID99qVIVi1PuguGE0GZztjeP9uVegrnZM1PHJVyC7eo4kUlU6EzzfJmSrVZUKauWr5y8QEvqGx0Bxb9WDRoaBD8U/QQKVCbE2jE2VwE4b3UnVIB7xyJigWKMNl2dwI0g1fyCHU64kzSzLXI5oI2cF3vfmnjYmXxY71Uh6zq5IZWrXrkih8BCC1eu4Bzc4p07ahEegdTGqVMlDxggnGnzek0YF0nHm50kM7vEpbTp+xsCJ6zmhjWhTsSODOpUh2529zBnd/9k4fHO8rieqAb7IKoM2DmFaZMAq+Yg7ZmYvNjUTSbrNLGTRDkhwCPfvve4YGFYwSHu5RVpIoDJZITyJUk+O2XE0JiSVww5tEJeHD5+HMQNVPdEG0nSwc8I6o5qIfJJk1GCtU37XriNctjGub+VWl359ez97fNa5Ja1aNqBsLhX0HKvQedxkFi9fzIKZQ+nxnhMPT61jkmEIeWuKNfqS71VzyjgOXwtKpfNn15yprDxn3FaaxcQTr0/+eSKJ0g6IYzby6cfwVcdAmAYJVCbktvcxfBOqI/57OXARMrm5UkRPSsLWjRKFzYk8uh+vZ2P2BeG19wSRFgUp4VYEl0LqNHx0khMJAwHGXGTrnB+Zs8yHh7nccFMtuIcHjzwf3FPNXz2qP30n7uQ2+5naNmG8O0vschajeueGVLKB2MgoLv0ymJaterFQ61+y1sbha0THetr4y1FEJGp2vTkzzLVf2h48fNY3FOTlzWl9Oi3OenupI2MUc+QIBx6Z46aOj6U6hq8+BsJUSKAyJQHbGKuaTxOmf0PfYau5ZFWWji3K6jOTy0uDDo0oEH+KBV8NYuz0mYz9ajALjsdRoOlHNHCGEs3aUTtHKNu/78fgCWr+wO/ZGGBDhY9bUEGt37hzY5yf7GdarxFqm5MZ3Os7Nt63pVqL9ymslvCsZovFmVX0HzKZaVr+/aaz/ZFav44nFSpWwS19CNsn9Tdse9qEEfRfdh4L51rUKq0X8a2UoGw5FQWvbmKMtr2x/em3zB+rNHcLmRN7+ie+/OobQxk/m7GfJ871aVvPSc173TEQpkKuo0qjP+U6quBz/Pa7H5kbdae9SzRBEWbkLNWQ7l9+RBm9ayT60T3CLHPgWsod50zGNLOsxajzvjt5zKO5/zia9HnK0qpLHz6ulss4zp+VNmZfRYpYxxAUpubnLEnTbn1pW9qYqTZmX03PQmSMfsDjaDNsCpbnw86f0aKUtgEzcpetSYVC9piFPyJCtcHSO5fjwy69aK2tb1eYyrWKU8AqzrBtzO0pXu8jenSpRf6UOozCHnAn3oZCxSrgmjD8fJI0K5zLlKVIpj+IiI2DzIVo9MmHlDKPwiK3GxXVSuEP7hCfuQDFK7oa+uFUBgTfjSNTQeN8TZLjhJZ/Lhp2akbhuLs8jM9I4ert6NXteRlffQyUlMqdSnIdVerJdVRp9GdeR0XzUUxrI9/j/1ZyHVXqSdNPCGHyJFCZAhsnSlepSGkn7Wc6IURyEqhMQa6qdOzbm47VtA5eIURyEqiEECZPApUQwuTJr35ppP3q16FjV9q3/1BPESJlT548YevW31i5YrGeIt6UBKo00gJVoyYtyZFd+2NYIV7uaXw8MfGxbFz3s54i3pQEqjSScf3Em5LrqFJP+qiEECZPApUQwuRJoBJCmDwJVEIIkyeBSghh8iRQif8ebWSZVu2YuEd/LUyeBCohhMmTG+elUZpvnHdoHt3HbScmayz75s5i/i9b2O/zAJwK4WJvHAXz0JzPGbc1hjyZLrBs2ix2hrtSo6gNd49uYtHsBSxW6+z0vkakTR4KOmUy3jRPibyyk4VTfjTkudP7NpYZ/Plp3CwuOjSgXJ5DzO4+gV/jcpHp4kqmTfMi3K0aLtHH2LhiKUvm/8JatV9Jy3KVDaNHMs3XnFw3tzNr9k+s3ngA3//loJjFWZZM1svv+wT7wkXJ9bKbQUReYe/aJfz4wwq1DS+OBMSS07kw2fXltXKvmLWQ2Ss3sHW/D8E4UtjF3jhoqOF4Lea2YR8MiydL0/crJgvx+xYybf5aNu48SoB5bty0PLRlF58gKiaeB767OftUO5b2xNxV+71oPnMWq+W3HsDnwVOcXF0wvgUpHyu12luRG+elntSo/mkxEQQ/vMiqKau5lrsKrRpXIcs9L+aOHMNqP+Mi0eGPCPbbwITvtnA7kysFHKzw+2UkX07cxGWbcjRuVZ/SFhdYO3EwQ37RV/Jbw4iRS9gbkpPqjZtRI/cNlk9Zx7mHjwg33B88hnA1fWnNVL5df4dMbs44mHszf9g01p74Aze1zvOyTGCjv7ZOPFEhqiz7VjBleyiF6tanUs5gvJdOpteI5VzMocpfz4WwowkDQKQg5iIrR45l5q93yF1PbaOeM6H7VjFuwhq0kofsn0GvIarcYfmo16oZ9fI8ZOe8UfSaut+Yn+F4JeyDLkmavl/r5rD8Wi5qqGNTKctdds0by9QdKofcZWlVyXiXityVmlGnqAME7WDiALXflzNSUdvvek488FrCiPGb9Pu3p3CstBGCxN9GApWJsK7WiXE9mlG70UcMGdAUl9hbbN2ZaCjPWEvce3zP9BG96eh+njWbbkHJNowa/BGNajek86iv6VgS/DetZ0coeO/cgX9sfloOGEDbRrVo3mM03aq9eAPyWIsS9Jw6iRF9O1Atwp9bFlmo0nEAndU6hrK09FALXeHydX0FTWwemg8fppZR221TjVzqRH5atA1f91blb/4xTVQ5Yn3Oc0pfPLGQPZvY4m9Jha7D6dNcbaN5Hwa2zE+s/xGO+p5l4ypvwrLVoe+4bjSvrcrd+xsGvO9A2KE1bHyL0W1iLSrQzZCHKuOXzXAnjnPnz0Le0tTWBr1QshaqReUidnivXsOpp8XoOMp4rGo378XErmVVsN/KliOGRQ2SHCsZoeZvJYHKRJQo4fl8bDrn4rirL/3I6ze5pieBGxUSRie9eI1LsSqlbEX0FCUblcq6qrPpKpcv+nH1cqRqshWnhLM+W+VeqYSbPp1IibLPBj3FrTXfzRxHIxtvdu36lZVzZjJ6bQrDGCfON52Z4UOUo0A+jHdi18cjfIlLl68SiyulPZ+Pk5e3+TjWrplM+8zXuBwE9mU88Hh2MCzxKFMae9UAvHwlQE97A2pfKyXkYWuFlXqKjU9p8K2r+F/Xxs+6yrrhn9O9u/HRe4UWFSO55n/VsJRB4mMl/lYSqN5FT6IMY/UlHxTTLoMWISKJfGKGubkx7a34rWdgl14MnrqO3SeuEWpbgCruCR1Bf45Iw6B6Krg9C0SJhEehjfmZdCBWxdrKMDJyRFSiEUH/NPHExamnrFXpPnKI4W82DY/RY5g07XtVm/tz91+kjgQqE/EkKlGPTswdAu6r8zN/XgroSUnkyY1Wobl8NWltx+fqFfV/HpzzuOCcX53a9+8SkKgvJyRKG9H05bx3budatCvtJk9j/KDe9GzTkGoFkgbDtHLMmVP9f4e7eleaJsRruqrFjODnOCecLeD2lWtJ+rdCrl7jNuY450554IubD7XxjlOrMHmcVVR/8IjwbE44OemPiHNsXruJ47dTiqji7yaBykScXrOYnbdUbSPmLseW/Ip3rAPVK5fS5ybjUoPaJc156PUzy31CiFH/QnxWsMwrBIuSNajpAqUqVyZb7HE2LTnGXRWsIm/tZP6a83oGrxJG8D2t1qPyvLSVKT+fNSb/SYqUL0duFah2rtnKFcPuejF/xVGCY53IX7ACNWs5wJkNzN95y1BrfFbubDWpWUEl2GVRzUBtUNGdxv26spVlWxN3oL25+HhjFK9QqRKZEh0r7RfAhfNW4nUymoy5DYuIf5gEKhORyewyi778lJbt+jNhTwQl2vWkw/OOmmSyUb9HH5q7PubX8b1o2+pjuo7fQahrY/r3eN/Qb2Xp0Za+7dwI3zON3u3a0fHL5VwyszGu/hIVWrejst19tnytyqHlOXYHZu/VxFXVck4u+poNibprUq1wcwb1rU7mi6sY3Kkdbfss4qSZG+0HdqGCpSUeHb6gZ7VM+MwbTMdWWrmX4JPZk54D2hr7rTwa0sbTltjjS4z7NWQdoSVK8VZ92/kLGPbp+JyP6bfKD8uKXRiU6Fi17TON7YG5adSnPTVt9XXEP0ruR5VGab4flXaV9KzjVOi1gl4lAnj0BKyyOOGQqJsmMlhLtyKLk4OhryaxmNC7BIU/xcwmGzltnwe2Z+tkgUfGTMl4dBpdFwVQf9gsPvGIJDjgEU9UulPijal6jCGdRNuLDCbgsRnZcloTGRhEBBnVtJ2x8z8mhMCgCEi0/VeV9xl9vfjE20lM26Ze7qTlMzJuA+N+Z4g05GVhOG4p7deLaSket4RtvlCmlx2rtyP3o0o9qVGZEGsHY/9I8nPBmJ7ySW9p62hYJ3GQ0oTsn0fffoOZcTCGbGp+tpjzrP4/1YTKVILihh//rHHQ+mJeOPH09MTbs3bAyRCYLLHLqeYlBCmNpR05k23/VeV9Rl/vpctp20yxfEYJx8qwXT0v46Ip7deLaSket4RtvlCmlx0r8XeRQPUvlavBR7QvbsHpef1V09DYnNkdkdDE0hcS4h0hTb80SnPTT29uJG/u/VkSmjiYJWquiX+ENP1ST2pU/zS9ufFXtSoSmjhJmmtCvGMkUAkhTJ4EKiGEyZM+qjQyDEDaqSvt28kApOLVnkQ9YeuvMgBpakigSiMtUDVs2opsjsZbhwjxMvHx8cQ9iWTz+lV6inhTEqjSSAtUnXt+wZczftRThEhZVHgYC4YPYuWSuXqKeFPSRyWEMHkSqIQQJk8ClRDC5EmgEkKYPAlUQgiTJ4FKCGHyJFAJIUyeBCohhMmTQCWEMHkSqIQQJk8ClRDC5EmgEkKYPAlUQgiTJ4FKCGHyJFAJIUyeBCohhMmTQCWEMHkSqIQQJk8ClRDC5EmgEkKYPAlUIm22D6Jb9UrM2a6/fpXoYO7fvM79R9F6ghBvRgKVSJsijekwYCBViuivX+XKL8zq0JZZay/pCUK8GQlUIm3yV6Fqo2YUz6+/FuIvIOP6pdG7M67fGTZ27M42p550tf8/lv/fNdy+OkyP93w5MOkb1u27TMQTMM/oiGuzfrT/tBoOhvXucmb+d6xce5SHar5l9vI0qJGOjavv0uDHn/ngpmr6fbeP0oNVXvUh+NCPLJ+xjkt3I4nDioyFqtFi0FCqxCxk1GfLVG66akOZN7YxsZc3smzCbE5efkwMFlg5luK9PoP5wNNRLZRymVvZvmQbhdIb8zZRMq5f6kmN6r/m0GyWHMpClW5ac+0uB0b35qfdTyn11UzGLFtA12bZubF8OMvWG0NKwIqRzFl+Cutaw+mv5vds+j92rj5imPeCq0tZMHIZN/J0od+ylYyZ3pV893bw07Af8S34Ib3GtySHWixH8+8Y07sm3NvIvL4TOP60Gu2nq+XnjuS97L5sG/kNu+8ZszRIXOaMr9iGvrj495FA9V9jUZZWc36gdWvVXIvZwu+HwnHuNIqOdcuSM28xSn86mHrFYrmwdQv+qkZz7P/OEZejGa0HNqSwml+s/Qg+KG+hZ5aM3wWuxoJT6arkz5ufnB7taD9mBB06liNTegeyZ8lg+MCls85Czuw2+P+6ltMRRWg0bBgVPdTyRWrzQf+2uMQeZ/+vF4x5ahKXOeIV29AXF/8+Eqj+a3IVxVmr1miuXeW2evJf0NHwy53x0Yb151Xi1asEqFAV6K+mXQvyvK/cgTyFc+nTyVSsR9VcFvjN+ZAvGrdmwtApeAfZ4lKzCk76IokFXL+q/vdlY5eEbatHhzloqbcN83SJy/yW2xD/DhKo/svMzTFXT1r/0ry9yR8T8CQjGTIaF30jWd6jw6ptTJg7ifYfViRT6D62je/P6I+GcfSRvkwi5uZazawanV/YtnqMbWxcKLm33Ib4d5BA9V/mWhhn9XTtwj5Ua0p3mZ39mzBo6Goe4E7eoirpwnnOPLv0KZpH94P16aQCd0xjwZgFXLKuTMX2X/LZrI1M/KoiPP6dkyl0a+Ut6Kr+v8D1Q4muq7q6guktmvDjhgA9Iam33Yb4d5BA9V+WtxE138tMyPYZLNl8nMCbx9n39RA2HAvBsWxVsqpmXpUm9cn4YBu/fLcOv5vnOb98EMt3hOsZJOVgEcJZr1/YNF9b9jqBvrvY/ts5sHDHpZi+kBIVcpfA++HkbNCccpkfcHDmGPb5qOV91jF/+FzOhzpT1DPlhtybbkP8u0ig+k9zoPzg6XSsmZ6zM3ozskNvfvZ+imvXyXRvrl0eoM7/6oP4YkBNLL2nM6lDV2atDCJPsayGeclZ1OzPZ72qkdHnB7VsW0Z2H8Oeh240GDOKOnnVAsWqUMHVipCtoxk5c7dqxtWn85RBlLU6ws991fJ9p3P2j1J8MPFbaib0SSXz2m2IfyW5jiqN3p3rqFIjlOt7fud2TB7c6pbVr6uK5sT4Rszd4U7HHZOoYtqXLpkUuY4q9aRGJV7BluhzS1k2fhjLV2tNw+v4bR7D+t3hZHyvFiUlSIm/iQQq8UpFPv2OjnVzcGOh1jRsy6RZx8lQUzUHB9cns76MEH81afql0b+76Sf+TNL0Sz2pUQkhTJ4EKiGEyZNAJYQweRKohBAmTwKVEMLkSaASQpg8CVRCCJMngUoIYfIkUAkhTJ4EKiGEyZNAJYQweRKohBAmTwKVEMLkSaASQpg8CVRCCJMngUoIYfIkUAkhTJ7c4TONtDt8ftS5By0+662nCJGymKhIdq1YyuoVi/QU8aYkUKWRFqgaNWlJ9pw59RQhUhYfH09cTDQb1/+sp4g3JYEqjbRA1a3754wcOURPESJlERERTJ/+I0uXzNNTxJuSPiohhMmTQCWEMHkSqIQQJk8ClRDC5EmgEqYj1JeDu7w46BuiXoTge9CLXQd91VRq3OSUymvXyZv6a/Euk0AlTMc9H9bMXcSaU/fVi/ucXLOIOWt81FRqXGOXymvO79eML89uYdr0mWw+a3wp3i0SqISJKkzbaStYO+0jNZUaNRiwRq3fv4bxZfAVDhw4wqVg40vxbpFA9Q4I8T3Irl0nuRkTgv+p/WraC+9LIcSoeZG3TrFPa+IcuUSIlpBYZDAXjqh5av6+UzeSzL95Um9WPVtmP6duRao5MYRcOqKvcwstJbGY0Buc2qcvf8NYhgTP8lTl9FN5/rp1m2G580H6AgZ6k+yIHxF6SsqSNv3e/hgkavrdPMmuy8YI9eByQtNSecXxEaZFLvhMo7/jgk+/VQMYuh6cne9z535GMqpTPCQqHW7lXbl19BLYWxLzMJynzh/w9aRWhhpIiM8Kvpm0TTWAbHDIaEZkWChxGSvQ7Zs+1MwGuye1Y5ZfHpzjbhFIFixjHhH2NAdl3S05fTqIjBnVvoU8wcqzB1O/qIqdCgm+GycyafUFIsxtyZw+mschcWQs3pz+Q5pSxDIhz4K4Wd7gwr04nMoU4f4JX/K2+ZYJzfMad+bIHDpO3o9981FMa5OsruT3M/2GbQHDPFjZ72vW05hvVK2Ktz4Ge5jYaj7eFT5lracf3RccJjgshvSZslCo8RcMLXqS4eM2ciud2pcMKmYlOz5/BbngM/WkRvXOuENQtvZMWfAjCxZ0p7p1DBeO3qHS4FksnjuXwQ0diPXfwc4jatEYb1bM2MatnI0Zt2guc+f+yMLJnXFX6T+t9n5eC3p0i/jqQ5i/6AcWj2+BS+w9jp/OTLvJs1kwfzIfe5gTdmgXe+6oZf3WM2fFBeJLf8qMn35k7vzZTOnhQfy51cxZ52fMT/PoCrccW/Hd0hVM/7IWntZw9ehxVb8x8jl/VtXS8lPVM1mQeiNvcQwS8+zG3I4lDZMeHX9gdDMrti3byDXrmvRXeRmOz8A62IV4s/X3q4blhGmRQPXOsKN6vTo4qpoLlllxyKKeHStQrYyKBEqJfPnV/5FEPlFPFy5yOgzyFMzCbUMzTTVtzj/FNgeEnb7IBcMammLU+6A4hhyc7cmqPbtXoK5hI3bkK5BdPas8w8H36DFuk4s6TWpgrHBY4lirIXWc4PbhY/ga0jTFaP15IwpqmVqWpWxZLVKd5qQW7PDhhLdqdrmUppyz9vptvcUxeBPh59m34xRXgiOx9OjM7DUrmPyhiz5TmBIJVO8MazIYz8fn0pml/AaGPOKhegoL8OPc+Qv6w49op4pUKeaAmXEpJQNWtvpkAjMzFYJedDcwUP2fC8ckFaHCOOZWT3fvc9eYoCTO05JK5cqokl/h2NEAFad88H4ErhUroDcE39JbHINXcqLB5z1pVCAdZ36exOAen9Km42cMnLieE0n604SpkED1b2SXBXv1lMuzA/369n726Na+Oa0+rIqrcam3kiWLnfo/hFBDzShBAKEq8KiZaJWbFFWszHuqCnbp2HF2nzjGQ4sSVK+pqmH/MEvHKnQeN5nFyxezYOZQerznxMNT65g0b0cqr9sSfyUJVP9GboUpoWoeFw7sfdY3RJAXM74cSP/lPnrC23ErVoJMqma05/eLz/q4Ynz3sMcPMrkXxU1Pe1EJypR3AL+tLN4XgkWx0pRPXov72+1natt2tBz7mwpKltjlLEb1zg2pZAOxkVEv/NIp/nkSqP6NLD356OOyWPmtZki/b5g2/Rv6frGI4/H5aNmkRopNu9exrNiCjp623Nv0PX2GT2bahNH0GbeNe3YV6Ni6wivzLOHpSW6t7yjSGs+aNdDqZn87qwyGvrgL2ybz0748eFazxeLMKvoPUfsyfSZj+01n+yMbKtTxVA1cYWrMRiv6tEiF2NhYtmzdRvXqVfWUP1/0o3uEWebAtZQ7zpm0lCc8uheGhWNhSnk4q5qOEvaAO/E2FCpWAdcckDFfJeqWzsbTx4+IiE9PzlJ16NCtEzXzGXuowh/cIT5zAYpXdEUtroQRfDeOTAXdqKhloCTdbkbyV6pD5SK2/KHaexH/y4Jb3Y/o8VkTSmQ2LJ5CnjoHMx4c2Ifv0/K07FGRPM87yZKKfsT9cHMcC7vj7myZZB8t3/oYJNuf3M7kNY8i+g/I4Fichi2aUqGQPWbh2vGB9M7l+LBLL1qX/uvCqPZZ8fY+RrMPGusp4k3JdVRpJDfOewP+6xnUfx2PGw5mducSeuJ/j1xHlXrS9BN/obNsVs2qCbP+j6sWxWjS8L8bpETaSKASf7n0TpXpPPRT6v9FV3yLfz8JVOIvVIImhksjOtKouEQpkXoSqIQQJk8609NI60z/+JMe9O7dU08RImVRUVH8tHQly5ct0FPEm5JAlUZaoHq/flMsLC30FCFS9scfT7HJlJktG1frKeJNSaBKI7k8QbwpuTwh9aSPSghh8iRQCSFMngQqIYTJk0AlhDB5EqiEECZPApVJucqG0Z/TffRGtNHorm0YR/fu49jwd93GO+gQS4Z/pbb5ObMP6WnvgBjfbUwcqI6b4VgdYrYqf/c5xh04NEdLn8c7tDsiBRKoTEo8USGPCA55Qpx6ZeXgTFE3ZxwyGOe+0p6ptGzVjol79Nep4L16MVsvhZO3RjMqarcYficEsG3ZCrxv2+DRuCZFs2bCyc2VorkMN34hOlwdz4cRRBteiXeVBCoTlquadivhDlT7m+7kFhml3duyCJ5talEqdTc1/wdEEKkNEJjdg1qNKlPEVv/7wiZyp4Z/E7lxXhr9uTfOC+bsb3u5iCu13i9OqGr6DZ62jzi3ahS1V4Hkyk5WzFrI7JUb2LrzKNeiMuLs4kQm73l0X3yCqJh4Hvju5uxTV2poKyQXeYWdy+cwd84vrN16AJ8HT3FydcHewthEWnz0CTHxD/D12sVdhwaUy6Ovl0iSMuz3USV2pLCLPdp1+VpTdfA0X9Ln8mf9tFn8tNaLI9ciyOzsglOmhLvlRXJl5ypmzZ3PyrXb2Ol9jUibPBR0ymQYdEIrx7itT8gav5850xazeqPKIyAdzm7GcialNZWnsuVmNHERNzmx4yzxbubsGTKBBQF2NC6bhxuH1nMsIBflW1dCG6Mm6TF4sXwxd4+xcdF85ixey8Zkxyit5MZ5qSc1KhMW9yRUNVtCiYpXL/zWMGLkEvbGFaFxq2Y0Lp0On1XTGDrfm5jcZWlVyThgQu5KzahT1MEwnUTofqZ+Poq5+8MpUK8Zreo58cBrCYM/n8H+ULVe+WZ4Gpp7Tniq/FNq+oXsn0GvIaoMYfmop5apl+chO+eNotfU/YYBEYzl3cu8yfuJK1VfbcOV2NPrmDBsjmEbKgzgs2Q4I+YdJKxALVq1qk9piwusnTia+UeMd2I3NNX8NjFjxQ3yqCZo40q23FHlHDE1pUEXHChapxbFbdSkjRvvt9KafjGEP1R5hKcw7HGMD0sGjX1+DBq7Y3lukyrfIry1xdUxmjVsGmsv21ND7V+rejm5t1Nte/ym5/eeF/8ICVTvCL8TR/GPzUmtNh1pVLsWjTr3oUeLirjbxPAgb2lqFzIGp6yFalG5yIu30z27YQ0Hwxyo32c0PZrXonbzXkzsX4dsYd6s3HCWvKVrUdAwsJ8DBVX+Lzb9zrJxlTdh2erQd1w3mqtlmvf+hgHvOxB2aA0bz+mLKS4tv2BIm4ZqG90Y17Uy1mobv+0OgDvbWfPrPeze78m4Hs2oXbshnUf1o7FTOLu3bOfZADexlnh2NZZT28/WJVXSeV9VguTsKFK5BHm0m6FbO1Gyttb0M85JyZ1tqhYYaPv8GDTqyKgB9ckdtp/N21T5Th1Xxwjcm/Uw7F/t5n3o06k6FbKnwxBnxT9GAtU7Il/+QthZBLJxXB+GTfiJ9fuu41DnE/p1qvoGgxEEcPVyMGQpTRmP58MwWHp4UDYLBF2+9jxIvMyda1wOAvsyHjzPwhKPMqWxVw3Ay1fUiW6QC/fiz6OcpacbWm/RtevXVEvN3/Br5uODC+it/TJneMxg5wOVeN1fNeQSuFHcM2Ejdtq4DCpSxRt+YEiLq9dvqP/DODD7S33b6jF5N9pQfobyqWPslh6OL+zJl2PnsXLrEeLcW/NZ38aGfRD/HAlU7wjLit2YMaE/fZqXJXPYabbM0wbO7EnXqXsMJ9qr6R3O1lbGUZGf0Qf0jIgi3JjwcuFRKhe1hnXSHBLyjIjS5r5GfDyx6qlY8yGGP+JOeIyb8D3TJ7ajjHGpv0xcvBbqitIi0bZHjhzJ99O+Z1JHtXXnRgyfNZIBbetQiBv8vno2I3v34uNBa/BNoSUp/j4SqN4RN096cejSH+Rr3pFB2sCZiybRu4oNIYd+Y/drr7MqTB5nc1WxusbVxG2YUPVaVYQsnJ3UEq9R2AlnC7h95VqSvqKQq9e4jTnOuRNyiMTw42ECv0BVn4MC+QtAntxoI7nfD4vAyclJf2Tk9v71rNnj+/pgmUbOebRfB4J4HJGwbfWwuc3+tevZ7RtGiO9B9h17gG3Vj+g54hsW/DSb75rnJ/raVrZ7G/MQ/wwJVO+I0DObmDN3CZsO3DUOABoXQdB9dWpb5CBbol/n4uNT/uqvULMm2TjP6vk7uaUFkshb7Jy/gdM4ULtmBeNCr1SBmrUc4MwG5u+8ZRikM/LWTuavOQ/ZavI8ixB2LV/B6VBVjsgrbPrFi9sWxahS2QlcKlC1sDm3f1vLpiuGHLiydQ5z1h3hRrpsZDdm8JcpULESrhZ3+O2XzRg3f4WtPyxi7YGbpMuWQ30b7Gfh3Hks23nFsH/EhHLvwWM1kZ0cScb/En83CVTviBINO9GoUASHpvenbat2tOw0ip/9s1H78/bU1LpzVI3FVdV4js/5mH6r/IwrJWLp0ZaBPTzJ7LOELzpp6w9mrk8mqvX4gg6J+q1ezhKPDl/Qs1omfOYNpqMqQ8cvl+CT2ZOeA9om6reyJmPoLsZ2/dhQxmWXbFUZEwZ2yMsH/bpTO8tllg35lJatPmXw0ouYle1A3xavrdOlnXNT+n1enSyXfmGw4RiMYsl5M8p2+YyWavN2NT6kY3lbbvwyyrB/Ldv1Z+rhOEq062KYL/45cuO8NPpzb5wXQ0hgEBFkJFtOO1WNukuQqjRlzOaInR4IYgxpT9WUFVmcHJL0OSXMM7PJRk7blwWfSIIDHvEkhfUjgwN49OTF9BdEBhPw6IkqQhacHJ4v6bdqAEPXQ/Px42mQWe1HfLokZX9O3894XihrSmV4dbmSHjPLhP3Ty5biujEhBAZFEK++p1MsX8L+vWx+KsmN81JPAlUayR0+n3seqCbSVmogL5BAlXrS9BNCmDwJVOJPk6/Bl0yf9iUN8ukJQvxJJFCJP42lrSNOTn9en44QCSRQCSFMnnSmp5EMQCrelAxAmnoSqNLIMABpg2ZYpJf2jng1wwCkNjZs2fCLniLelASqNNICVZdeX9Jv2iw9RYiURYWHsXjUEJYtnK2niDclfVRCCJMngUoIYfIkUAkhTJ4EKiGEyZNAJYQweRKohBAmTwKVEMLkSaASQpg8CVRCCJMngUoIYfIkUAkhTJ4EKiGEyZNAJYQweRKohBAmTwKVEMLkSaASQpg8CVRCCJMngUoIYfIkUAkhTJ4EKiGEyZNAJYQweRKoRAqiubKiL4PrVaJb7VoM7b+Ca/qc1/un1hX/ZhKoxIsOTGLWvKM8fKKmYyN5cOwHfpxy0Djvdf6pdcW/mgQq8YJrF88SoU8neHzuPP769Kv8U+uKfzcJVOIFBYqWIKM+bWRB5uKuOOuvXuWfWlf8u0mgEi+q0p9e3cpjb6WmLazJWu4TevSqbpz3Ov/UuuJfTYZ0TyMZ0l28KRnSPfWkRiWEMHkSqIQQJk8ClRDC5EmgEkKYPAlUQgiTJ4FKCGHyJFAJIUyeBCohhMmTQCWEMHkSqIQQJk8ClRDC5EmgEkKYPAlUQgiTJ4FKCGHyJFAJIUyeBCohhMmTQCWEMHkSqIQQJk8ClRDC5EmgEkKYPBncIY20wR0+6tSNL6b9oKcIkbKI8HBWTxwvgzukggSqNIqOiaFz18+IRw6jeL1iRVwZNXSg/kq8KQlUQgiTJ31UQgiTJ4FKCGHyJFAJIUyeBCohhMmTQCWEMHkSqIQQJk8ClRDC5EmgEkKYPAlUQgiTJ4FKCGHyJFAJIUyeBCohhMmTQCWEMHkSqIQQJk8ClRDC5EmgEkKYPAlUQgiTJ4FKCGHyJFAJIUyeBCohhMmTQCWEMHkSqIQQJk8ClRDC5EmgEkKYPAlUQgiTJyMlm4C48DiibkQQ+yiWP+Ll7RAv9z+z/2GRxYIM+TJibmOup/77SaD6h8WrIBV6KkQClHgrWsCyLWWH2X8kWEnT7x8WeSNSgpR4a9pnRvvs/FekukZ1Zf96fO7rL16QDY8WjgSuO0OgepXTvTlVChrnmJzoYE7v38vlULBz9qRi2ZzY6LNeJvzqAfaonX9ilZ2SFctR2CG9PuftPdz/gD8e+XHUJ5AoPe0ZSztc3IqQO7OFniD+NgFn2Hs1FHuXqpRw0tOeeczlo6e5Q05KlS9EZj01qQDO7rvGQ7sCVC/5QgZv7/Flw2cER3fKFzJuUatV2VfNaph+qSv7WXv6CYXLZOXOieuE68nPvOIzHB54nCMHbxKipu2cy1KqRF4SL/ayGGCVoxiVyrkalvU/tIlj0a40rlmE1J8laQhUm74sz3Av/UVydh/ww97ibHQfxy7saD1zByOq6fNMSPSpOXTssYgLT/QExbJwY8aNHUj9Iikd1rtsGvgxY/7vITF6CupjWqX3t4zoWo5cesrbCN4TBFc3MPybHdyxtCZLxoSg9JQn4WEqeGWiQodBdK/soKeLV7vBtu/n4EV1+gysj7Oe+tYOzqHLotOU6TKbXpX1tGeusn7EJLZSl+Fjm1FAT03qELM+WcaJMh1Y9JmnnpYG+meEhv0Z19xFTwSHGtn0qZRcZlHHzizON4ZdLS7yYcefuGqVmRyZEz7b8USEPFTBy576wxfzfVNHY/LdvcwY+S1Ljz4knV02bC315dI503LsDEbVNS5njAEW2GS1I2NC2+xpBI8eqJpe1lqMXP4tTcMW06HdBopOW8PQyqkPVWlv+tm4ULV+HRokfjQork5aN1qMHMyokX15v5C+rEnxZsYQLUhZkLded1XO7tTPbUGM3xbG/Pir+rZ8UfDqb4xBysqDjmrfBrb3UGH4MQdmTuSXU9H6UmlQogWTJ32nP75n2tfNKEYY3pu8uKgvIl4nnidhoTwKe6Km/tuidyxj/mkXOrSv9bw2U7kPu3b+qj9+Y8/a3lTiIdtnr1RnhBJ9khl9hjLfx54WM1VtaG/CchNok/cOa4d9xY+nDTnpnGgzJSE/9fDaw5bB5eCBFz8uVzkWbkuHuuGsW7Y+xXPqTaU9ULk2YPh345mQ+DGoCc9jUzTREfqkEh3sw65161n76wGuhAdz8jc1rV4fuKLNvcIBbd6z15rkaQmvf+NksLEZtlWf1oQHnuPAr9r8XRwPfKGi+9zBvfx2Vz0X6cSk7z+hZYtP+H5ca8M3cPhpX/VdlFwwO373VjUpaxqMnsmAFs3pMGAm/apr825w5txDw1J/JoscNSlXTE0E++F3Q2tu7GfvmQCIfczVE/q0Juohl7TX+/Zz+OwtHscak5+L4tGlE4b5e/ed4OqLC6gsLnHCMP8IZ+8ka4Qmyn/viUs8SjI7lse3znI4Yd1bj1XKqyRbPvm2lCRlSZZfwBmVfvQyj6NU0+pIsmW05tG+iwRoXTeRdzmv8jgbkJbj9nrxj2+9WI6XSvQ+HDnL7Ve+D/s5ceXV+QX7HjGcF1uO6fuTRDCbNngR7l6TuoX1pBSkd25NvUpq4u4JTpxXdbCfpjHfDyp9OZmh1fQalpLeuSZD+zUle8wV1m0/qKemLJdbUfKo5wdB2kmZnro1q2F5eINqghpmp8pf+JPBBdaN+U5v+hn7qO5sGkK7cV48SGg3FShHpbBjHA5KWObFdV7MJ+F1CVrcWo/XYh/VhvZggKc7D77uw7D1/jxvyWWmTNcRfNO7+ovNMveOLNjYCswyP5sXrQ6sdmgtyxSnojEpERvqDv2Fiupr2jpbwvfTTYIfaM/5KFXy+Zv657HAzEx7jic+PoizW1ayNZM7vkvO4R2qCqKaFcVjfmfKwkOqUao1G80MzcVY68I06/k59QupZmTsZTZ99wObbsSTwdYGy5hwQpea4dzkc4Y2LaS2EMzxpTNZsO8BZmq+Vbw6mcJXPZvP5c18M2U7/onyX5q+qArSfaiZO5iDcyeoJkIkFs/WjSd7nR6M/ai4yju5hOXDSGdjS0btxA1fjm35tgzv7onDs7LcU4dbzTd7QlhoHBmLNuSzvvXRdufGgZUsveqE14oA7mNLhni1PyrW5W7yBWPcr7Bn8z78DV+Mfvy++SbuH+Yic2qO25sI2sPkgV6YWT/f9+f7kkzwMZZOXc5e9eVokyUDZk9UueOsKdr0U/rV196HWC5vmsRkVeanGTKRyTJG7ftK0uWrz1eDE3/xGwWf+ZnpP+7ljGdDps9OoQ8seAe7DsVSuHt59el8lfSYG6JAHHFxN9i/31edANVp2DyFz3PlgXidHqi/eLnoe/e5p869BnVrGROqlqai5TZ+33eaPu7uxrS3lPYaVYQ/+/UaT8LjeW0okeDVjDUEKQs8ukxh1cYfGVnoDieC9Plv7SzrFp8nrlA51dyshNWWYQxRQepp4ZZMWfkLmxf2pordY04smMCsHXp1KzGbnOTPn5/8eR1Ir3U4LhhHh/G/8bTQh0wa1iSFjr/0OORVy6t1cthoNcHlzOg9kLnn7akxbCzdU3f8Xy1YfateUM8ZnHFO6Ja4dJrzeZowbOoMFrWHn5ccIihHbQZOmaw3F9viHu/Hmp+2ck0tfnHdEhWkzCnT5WtmTfmOqT98TWcPM/w3b2BXoKqE7FnBvH1hlNDnT57+HQPrZyNg8xLWqc/smQN78I8pTucZev5f1SZX+EW27DsHgUdV7SYMh/p99XVHqrwtub9zF/seG4ubmLYtLajlbPglM9V2Jk+fxBC1rdCja9l0Qs0/uIbFKmBmV/lN1eZPmcjYzsWJv7iZpVuu6rkoIarg1Y15TJ3al/q54rl91IfL6qQeOKk7tbRum2zV6a2a0J1VK8TgLY/bG4lVQbluX6Y9O245iTi6kp/2JN/5xxz8ZRV7H2Sj/oDvmKHKNXXqCDqXjOfi2pUYds13A/NUkLJUQfTbH75X+z6Nb9W+m93YzhrtjUokIUiFuLZk3uyPKZ1S18+pS+oMscDFWauSv8Ld9ezS2nw2bri5X+W6VpbczuR/4+6kcK54Jzr/F4yg1Yh9FOs7jUG19UzSu1BIRcurx06qtkfqpD1Q+W5mnKrhfP3sMYfdKTRGg3fs5YBWk1JVzS/6VqF4/rK0GtuDeq/7ie0Vsjcfx861s1RzszSB28+pZpkd5armI9T3FCf8M+Lhof0i8oBdW/caakovdX4zX8/czMUQ1WK4/AtDh61SDcxXuc2BuTOYvy9AbfMhe8aPYPLBV27hzdw4xNx5C/THNEaO+gWfKEuc369KGX0R1dam6Sd1ccmsvoNPq/2MMsO9ThOKZDDOtchRlfrVc6rqq5p3+TLnzqomacHatHjWGe9ApU6DGT+uAxVtH3Ps5EXibPKRK/6CsUmy7zj3HJxxUvt1+txlstjaqnUusm3RDs7eeKi+GFowbuFsprQtrrKyxVZVPu7t38zPhy9x/3FmqvWewqKF/aj1wk9hsficVdvKUJamzbUahMaCQg17q7IMoFGhSHxOnibKojj1mhbBuDsW5KhahxqqynvnhApEhjRNQarX1vOwKEQu7cs/MEjVsF7lbY6bMe217KrQ+tm+ZKBI03qUzxDP2bOnkzbZYk9z4kQU5iXf44PnG6RavSqqNh/IsVOXuXzunPqM5qd+8+e1MYeKHRg1biQfV9DeA6PISxuZqILUbceGfPVFLYq+JKDcuHlThRAncufWExJc2MKgwcP0Ry+at5jMnnAr3Do1ozYRhL+ityRloRz7ZSFz5uiPXw5z90kk3tO702nmSYw9t8Vw0tqCd4JIqZH6JtIeqJzrMsDQaZ7wSLnzPOCBXnXKao/6OBilz0nO7Pr0W7OjalVP/VICf64bvgZDOLhw0rOg+cMeQ7uMyPAI/YC9RNOJnD39OxtGVFe5qu+Iw7/ipWoTL+dOnw1HOf77NLoU1j6mN/hty9FXB8O3ZoNTlQb0GjKWoY2e/8pDLvVtpweBW0Ha/mXDMafxVElQIEcO9b86ce+rh/ZlrILNs2OuWGTOjqOjI1kyBBH6SCVEX2Xf5l/ZnPD49TyPs9gSExFCgcY96N2sOBku/MrUscPo1aMfA79dxr6b6lS08KTL4I+onvMh+5dOY/AXfejRdzw/bD2dwrG4yQMtkqh8sxgTjDLYG8qSPfNd4/xsOXBMsjsu5HghEFlhlfI1AS/3VsfN+Pq1rNOrhmMiFvbYazt3/wG3jClGNx8Yyp49Zw49qOlc1L6qp3va+6QeWldF5qRvFNnVsXG014ObEnLlOtHWaqs3d+N14uU9WI8j3iTi2FHogy5MXbqBn7ppTQJ1jLSfMG8HqK/ilHizRAtw039LFHCSdaar2vSBzQOpYROL309rSHJhQFCQqjakTtoDVVZXardoTstnj4aUS6F56+qkt6Nvqm/5hE9x8CUupnxEnotWbWd9Mjkz84Svk9zkNfwObUeD77aroHM0yeP4jGYv9Blc+LEtJdzLU23wdv2ksqFgy6qUNUw/JPiFM20bA8uVV+u0Z64exNI7eFKrmnG/HoVoV5ukUT5Punfr+vzxUQPKFMyc9MOdSFZDbSeKqGT90YGPtaaHLXa2VmTQPuNPolTjIxHtGiFVezoboAcBh6p89uzXRu0xiuFf9WVQMw/DN3+pRj0YNX06i34Yz6BOFbELOMSSHzYYfonMkK86nYaMZ9acGUwb/RnNXSM5uWF+Cs2fjGTQzurIaJJcpmjoAN/P0ctW2GonefL5qsbxOFQ92dmpPfpzvP64GV+/1tOnyX5ZVHlqhc+SmSRXN2XLbAjOkep9SCIwVNVHtF3LjJXxjeJJ0jeKs1otN6HzX7Gr0IHho1tTwSaSAz+tYNdLvoEzZ3xJU8Wt8fMfvbTHwE+o7eGgd3W4U6aCKnmMNwd2pJDxwb0s276TfcEWKjy9XHrnltSuoCZirnIlcQe6pflLP8uvk/ZA9YbSV69EFUs1EfQbk4f/wLJ1CxnyyQ/G5uAzDmQzXBYSgvehQ6rqGo3/ai8OGea9Smk8q2pfRSHs27SV08HqIIdfYc2XtQ3BqNPPgS/0ObmVLWPoRH+0fTFTth7n+vXjbBn9M/u0mZnLUlZFrP/7uiG166jHgPUqmFVQadph9mPJtHkcOH+dcwcWMnutsdVdrGy5FztQ/2KZXQuhGroc2r3/eQ0m9jL7D11XcbcIRVxLUNJDnQB+J9jnn/DtG8vx7UtYuvQwt82ghFtRzAMPsSNR0zX2zHrGDh/PmrOP8ZrSky5freC0trqq/bhWakEVVzUdGUnkuZ/58pOeTDD0AVqQOU8J6tYpTQ51+kYZztjEclKiRF71Fh3jyPHnJ+ztfWuZo77Rzz12wrWwNv8ov+9PVJbLBzmo2uE2xQurxtuf4/XHTU97nWTHLfjgAbzV91W+wq5JLwLN7IprfrVrh/aqk1xP0zrPDxzliqqTFXd1pWSJEqrxeAXvff7Pmo2xx3eoY7OSgwGGX1QMrLNmxSFzBVq2VLXccG8mTj2YYmshn6odWqr6i6rEvJXKzVvhYRnOlvHDWeefKGftsoVpm1TNMB9tWuid5C8TfZDzWt+qpTPORbSEG8YfnfI5v6Zj/+X+vj8UcmjNiPF+9BixmeuHfuJ7FX2sPFvS4uladUD0ZahMrXo5WbU8EP9V/ai0SiVZ5iSXCl6qeftKFfqMpufJfsw+PIv2783SU9XqlXozoUMKl8WX/5xvu57g0wVX2DzsMzbryVjmpvmIntRVkW1TaJCqlqu0YK3p6EDrkYM4/NE4dh1eQE/1SGBV5jNGpbSNv1ruurRpcobJm1cybPgJSuW1JMj3AtcitYtEG1PGQgXWZi0pc3YZ69W356VSubG878fZ6zHkbtiM2iq2W+RsSJP9M1i/bCwjvYvjZBGE7/mbROSpS93yDuQwK82m+QeYPTSAYoXssQy/zanzZmr9ypQsno7beQ6wab1a95xa1ybGsP17Nu40Kp+4DWOUu15LGh2fztYFowg8XJhssVpe97Ap04GmZdRHJLYlTU/9wKYlYxh2rAR5E8piW5pOTUq/4bexXnPzP8naecGUrFrTmJzYa4+bvtzrWERzOtlxe6KOW5t6WsfQTeMyBrmp92F9TkzZzpLhozn27H2INPxK2FRt0IImtC1zjoUbpjDa7/m+x6r8WmlvVOLsFIeqH/Ghz3hGrprA5KopXExZsSRlVMPrxk3ti/QtwkPhj5kwPsBwno5u3ZBfSlUgv10Il/f5cDk2E/VHTUz2w9ED9swfRkCiCtwj3/0cvmuFW6/2NDUUy9hJb1OrEG7q1ZmZrWm34AYuXeezsfeb/QplNlrRp99K6N0bxGVxoZBHeRqWzptCxAsh0D+OLIWKUbZqZYqo6kYml2q0+bQNLd5vQMuPP2PgR7acWrWVU6E2lGzcjqrqCzV35cZUK2SFtZk9hWq0Z9iEthQJDyO9U0I+L+ZrYO5IuZatnq2bu2QV2n7en5GfvIdj8uqUgTmOFRrRslIhVU1Oh0NuFyrW78oXo3vTzt2Y6Qv7mMmV91vVpKRTRqwyZie/vo0R3WqTN8VtvF6U9vdaMaEERZiTNV9hyhZ82ZXGMYQEhWOR3YUSxXPrfXNmOBSpSi13RyxiHhIWbYZ9kWq06tiJ+kX1T451HsrXKEZuixgehMVgZl+Y91q2p321vPqJb0/h6jUo6WhGTHAY0eb2FK3xAZ3aVVMni6oJ5y5DDS3/p6Faq0y9ifmp+Wx9e4pULkMhOzMiw6JUPcqMXO71aftpE0qm1Idk5kBRw/IQFqKWt3SibNPWdGta0lgDUfOLaGXJbUZs4rJ0eZ+E3YkIDiQ+Uz6KlHEh4UglTbNRX9xa/5qxw8DOuThZ/0jFcYt4SGB8RvIXKc2Lb4n+XuSvTZePivHH/SDVXE163LRfwx7ei8NGf0/NHFypUevF96FL/aJ6mazJW67ai/uekJ/+GclRsDjFc2trWONc0B5z62gePI7HtWKhpE1j60wEHV7DtiBnWjYqhvWTIG6HWuJUrAx1PJL3sCdlOE/bqM95DnPCHoYThxWFa33MwPGD6FDG4dm5bjw/8uCgtZQSyZCnIh8PHkf/hvmNyx7dwARVG/HsOpRaLuZEPbhNqKUjRT088Sys9Qq/Xqr/hOat3VhMh6az8SEPbWcvZYinDdGnpvNh5xVczfw+k3eNMdRi/msMf+snf5QsUuF1f+sXvGkAjcY94YvfZtL67+6XSMR7YhO6elVnwW9foXVdpcbf1kdFvia0aaiaDtxiZc8GVK1TmypakFLRuspnn1D9PxikNBZZkn0dCfGGXvfZcWjanja5vVm5Mg2XhKdV8GZ+3hhMpU5tUx2kNH9fjcogmmCf/azfsZsrDzOoamhFPOtUpGxOvbr9HyT3oxKp8ab3o4o+tZJv10ZRe8AnVHmzVtafym/D9yz0K0LXJH9W9/b+5kAlUiJ3+BRvSu7wKYQQJurv66MSQohUkkAlhDB5EqiEECZPApUQwuRJoBJCmDwJVEIIkyeBSghh4uD/ATeou2qohXUAAAAAAElFTkSuQmCC;" parent="1" vertex="1">
          <mxGeometry x="-1000" y="-600" width="298" height="294" as="geometry" />
        </mxCell>
        <mxCell id="-42A4s9kj0HnF6taIo56-7" value="" style="endArrow=none;html=1;edgeStyle=orthogonalEdgeStyle;" parent="1" source="Nem7usS77iA_jL6YwA_9-16" target="Nem7usS77iA_jL6YwA_9-4" edge="1">
          <mxGeometry relative="1" as="geometry">
            <mxPoint x="850" y="120" as="sourcePoint" />
            <mxPoint x="810" y="260" as="targetPoint" />
          </mxGeometry>
        </mxCell>
        <mxCell id="-42A4s9kj0HnF6taIo56-8" value="use | 1" style="edgeLabel;resizable=0;html=1;align=right;verticalAlign=bottom;" parent="-42A4s9kj0HnF6taIo56-7" connectable="0" vertex="1">
          <mxGeometry x="1" relative="1" as="geometry">
            <mxPoint x="40" as="offset" />
          </mxGeometry>
        </mxCell>
        <mxCell id="9krkrCmCOc9bY8GKS92m-1" style="edgeStyle=none;html=1;dashed=1;" parent="1" source="9krkrCmCOc9bY8GKS92m-2" edge="1">
          <mxGeometry relative="1" as="geometry">
            <mxPoint x="400" y="80" as="targetPoint" />
          </mxGeometry>
        </mxCell>
        <mxCell id="9krkrCmCOc9bY8GKS92m-2" value="threading" style="shape=folder;fontStyle=1;spacingTop=10;tabWidth=40;tabHeight=14;tabPosition=left;html=1;strokeColor=default;fillColor=none;" parent="1" vertex="1">
          <mxGeometry x="280" y="60" width="80" height="40" as="geometry" />
        </mxCell>
        <mxCell id="9krkrCmCOc9bY8GKS92m-3" value="&lt;b&gt;Process&lt;/b&gt;&lt;br&gt;Holds information about process,&lt;br&gt;usually held in the process control block" style="html=1;fontStyle=0;verticalAlign=top;" parent="1" vertex="1">
          <mxGeometry x="560" y="490" width="240" height="50" as="geometry" />
        </mxCell>
        <mxCell id="9krkrCmCOc9bY8GKS92m-4" value="&lt;b&gt;Thread&lt;/b&gt;&lt;br&gt;The code within a process &lt;br&gt;that needs to run to completion" style="html=1;fontStyle=0;verticalAlign=top;" parent="1" vertex="1">
          <mxGeometry x="620" y="600" width="200" height="50" as="geometry" />
        </mxCell>
        <mxCell id="9krkrCmCOc9bY8GKS92m-5" value="" style="endArrow=none;html=1;edgeStyle=orthogonalEdgeStyle;" parent="1" source="Nem7usS77iA_jL6YwA_9-6" target="9krkrCmCOc9bY8GKS92m-12" edge="1">
          <mxGeometry relative="1" as="geometry">
            <mxPoint x="600" y="370" as="sourcePoint" />
            <mxPoint x="950" y="400" as="targetPoint" />
          </mxGeometry>
        </mxCell>
        <mxCell id="9krkrCmCOc9bY8GKS92m-6" value="parent" style="edgeLabel;resizable=0;html=1;align=left;verticalAlign=bottom;" parent="9krkrCmCOc9bY8GKS92m-5" connectable="0" vertex="1">
          <mxGeometry x="-1" relative="1" as="geometry">
            <mxPoint y="20" as="offset" />
          </mxGeometry>
        </mxCell>
        <mxCell id="9krkrCmCOc9bY8GKS92m-7" value="child | 0..N" style="edgeLabel;resizable=0;html=1;align=right;verticalAlign=bottom;" parent="9krkrCmCOc9bY8GKS92m-5" connectable="0" vertex="1">
          <mxGeometry x="1" relative="1" as="geometry">
            <mxPoint x="-10" as="offset" />
          </mxGeometry>
        </mxCell>
        <mxCell id="9krkrCmCOc9bY8GKS92m-8" value="" style="endArrow=none;html=1;edgeStyle=orthogonalEdgeStyle;" parent="1" source="9krkrCmCOc9bY8GKS92m-3" target="9krkrCmCOc9bY8GKS92m-4" edge="1">
          <mxGeometry relative="1" as="geometry">
            <mxPoint x="610" y="370" as="sourcePoint" />
            <mxPoint x="650" y="450" as="targetPoint" />
          </mxGeometry>
        </mxCell>
        <mxCell id="9krkrCmCOc9bY8GKS92m-9" value="parent" style="edgeLabel;resizable=0;html=1;align=left;verticalAlign=bottom;" parent="9krkrCmCOc9bY8GKS92m-8" connectable="0" vertex="1">
          <mxGeometry x="-1" relative="1" as="geometry">
            <mxPoint y="20" as="offset" />
          </mxGeometry>
        </mxCell>
        <mxCell id="9krkrCmCOc9bY8GKS92m-10" value="child | 1..N" style="edgeLabel;resizable=0;html=1;align=right;verticalAlign=bottom;" parent="9krkrCmCOc9bY8GKS92m-8" connectable="0" vertex="1">
          <mxGeometry x="1" relative="1" as="geometry">
            <mxPoint x="-10" as="offset" />
          </mxGeometry>
        </mxCell>
        <mxCell id="9krkrCmCOc9bY8GKS92m-11" value="&lt;b&gt;&lt;u&gt;CompletedQueue&lt;/u&gt;&lt;/b&gt;&lt;br&gt;Holds processes that have&lt;br&gt;been ran to completion" style="html=1;fontStyle=0;verticalAlign=top;" parent="1" vertex="1">
          <mxGeometry x="1160" y="160" width="160" height="50" as="geometry" />
        </mxCell>
        <mxCell id="9krkrCmCOc9bY8GKS92m-12" value="&lt;b&gt;QueueItem&lt;/b&gt;&lt;br&gt;Simply holds a process and&lt;br&gt;the age of this item" style="html=1;fontStyle=0;verticalAlign=top;" parent="1" vertex="1">
          <mxGeometry x="560" y="380" width="160" height="50" as="geometry" />
        </mxCell>
        <mxCell id="9krkrCmCOc9bY8GKS92m-13" value="" style="endArrow=none;html=1;edgeStyle=orthogonalEdgeStyle;" parent="1" source="9krkrCmCOc9bY8GKS92m-12" target="9krkrCmCOc9bY8GKS92m-3" edge="1">
          <mxGeometry relative="1" as="geometry">
            <mxPoint x="610" y="340" as="sourcePoint" />
            <mxPoint x="650" y="410" as="targetPoint" />
          </mxGeometry>
        </mxCell>
        <mxCell id="9krkrCmCOc9bY8GKS92m-14" value="parent" style="edgeLabel;resizable=0;html=1;align=left;verticalAlign=bottom;" parent="9krkrCmCOc9bY8GKS92m-13" connectable="0" vertex="1">
          <mxGeometry x="-1" relative="1" as="geometry">
            <mxPoint y="20" as="offset" />
          </mxGeometry>
        </mxCell>
        <mxCell id="9krkrCmCOc9bY8GKS92m-15" value="child | 1" style="edgeLabel;resizable=0;html=1;align=right;verticalAlign=bottom;" parent="9krkrCmCOc9bY8GKS92m-13" connectable="0" vertex="1">
          <mxGeometry x="1" relative="1" as="geometry">
            <mxPoint x="-10" as="offset" />
          </mxGeometry>
        </mxCell>
        <mxCell id="9krkrCmCOc9bY8GKS92m-16" value="" style="endArrow=none;html=1;edgeStyle=orthogonalEdgeStyle;" parent="1" source="Nem7usS77iA_jL6YwA_9-16" target="9krkrCmCOc9bY8GKS92m-11" edge="1">
          <mxGeometry relative="1" as="geometry">
            <mxPoint x="849.9999999999998" y="195" as="sourcePoint" />
            <mxPoint x="770" y="195" as="targetPoint" />
          </mxGeometry>
        </mxCell>
        <mxCell id="9krkrCmCOc9bY8GKS92m-17" value="use | 1" style="edgeLabel;resizable=0;html=1;align=right;verticalAlign=bottom;" parent="9krkrCmCOc9bY8GKS92m-16" connectable="0" vertex="1">
          <mxGeometry x="1" relative="1" as="geometry">
            <mxPoint as="offset" />
          </mxGeometry>
        </mxCell>
        <mxCell id="9krkrCmCOc9bY8GKS92m-19" style="edgeStyle=none;html=1;dashed=1;" parent="1" source="9krkrCmCOc9bY8GKS92m-20" edge="1">
          <mxGeometry relative="1" as="geometry">
            <mxPoint x="400" y="140" as="targetPoint" />
          </mxGeometry>
        </mxCell>
        <mxCell id="9krkrCmCOc9bY8GKS92m-20" value="random" style="shape=folder;fontStyle=1;spacingTop=10;tabWidth=40;tabHeight=14;tabPosition=left;html=1;strokeColor=default;fillColor=none;" parent="1" vertex="1">
          <mxGeometry x="280" y="120" width="80" height="40" as="geometry" />
        </mxCell>
        <mxCell id="9krkrCmCOc9bY8GKS92m-21" style="edgeStyle=none;html=1;dashed=1;" parent="1" source="9krkrCmCOc9bY8GKS92m-22" edge="1">
          <mxGeometry relative="1" as="geometry">
            <mxPoint x="400" y="200" as="targetPoint" />
          </mxGeometry>
        </mxCell>
        <mxCell id="9krkrCmCOc9bY8GKS92m-22" value="time" style="shape=folder;fontStyle=1;spacingTop=10;tabWidth=40;tabHeight=14;tabPosition=left;html=1;strokeColor=default;fillColor=none;" parent="1" vertex="1">
          <mxGeometry x="280" y="180" width="80" height="40" as="geometry" />
        </mxCell>
      </root>
    </mxGraphModel>
  </diagram>
  <diagram id="m3pwOiGPFuKlnmYw8CAz" name="custom_sjf_flowchart">
    <mxGraphModel dx="1418" dy="820" grid="1" gridSize="10" guides="1" tooltips="1" connect="1" arrows="1" fold="1" page="1" pageScale="1" pageWidth="850" pageHeight="1100" math="0" shadow="0">
      <root>
        <mxCell id="0" />
        <mxCell id="1" parent="0" />
        <mxCell id="IXwhl6oF4zCc4Z4J7RNo-1" value="SJF + Aging process selection algorithm" style="shape=umlFrame;whiteSpace=wrap;html=1;width=120;height=40;" parent="1" vertex="1">
          <mxGeometry x="10" y="10" width="640" height="510" as="geometry" />
        </mxCell>
        <mxCell id="RMxBgKgoCJgBHleWsT9Q-1" value="" style="ellipse;html=1;shape=startState;fillColor=#000000;strokeColor=#ff0000;" parent="1" vertex="1">
          <mxGeometry x="280" y="40" width="40" height="40" as="geometry" />
        </mxCell>
        <mxCell id="RMxBgKgoCJgBHleWsT9Q-2" value="" style="edgeStyle=orthogonalEdgeStyle;html=1;verticalAlign=bottom;endArrow=open;endSize=8;strokeColor=#ff0000;dashed=1;" parent="1" source="RMxBgKgoCJgBHleWsT9Q-1" target="RMxBgKgoCJgBHleWsT9Q-3" edge="1">
          <mxGeometry relative="1" as="geometry">
            <mxPoint x="300" y="120" as="targetPoint" />
          </mxGeometry>
        </mxCell>
        <mxCell id="RMxBgKgoCJgBHleWsT9Q-3" value="&lt;font color=&quot;#000000&quot;&gt;is the ready &lt;br&gt;queue empty?&lt;/font&gt;" style="rhombus;whiteSpace=wrap;html=1;fillColor=#ffffc0;strokeColor=#ff0000;" parent="1" vertex="1">
          <mxGeometry x="220" y="120" width="160" height="50" as="geometry" />
        </mxCell>
        <mxCell id="RMxBgKgoCJgBHleWsT9Q-4" value="no" style="edgeStyle=orthogonalEdgeStyle;html=1;align=left;verticalAlign=bottom;endArrow=open;endSize=8;strokeColor=#ff0000;dashed=1;" parent="1" source="RMxBgKgoCJgBHleWsT9Q-3" target="mKRsOx1qspEqzQchLwDA-10" edge="1">
          <mxGeometry relative="1" as="geometry">
            <mxPoint x="300" y="210" as="targetPoint" />
          </mxGeometry>
        </mxCell>
        <mxCell id="RMxBgKgoCJgBHleWsT9Q-5" value="yes" style="edgeStyle=orthogonalEdgeStyle;html=1;align=left;verticalAlign=top;endArrow=open;endSize=8;strokeColor=#ff0000;dashed=1;" parent="1" source="RMxBgKgoCJgBHleWsT9Q-3" target="mKRsOx1qspEqzQchLwDA-1" edge="1">
          <mxGeometry x="-1" y="5" relative="1" as="geometry">
            <mxPoint x="480" y="150" as="targetPoint" />
            <mxPoint as="offset" />
          </mxGeometry>
        </mxCell>
        <mxCell id="mKRsOx1qspEqzQchLwDA-1" value="return nothing" style="rounded=1;whiteSpace=wrap;html=1;arcSize=40;fontColor=#000000;fillColor=#ffffc0;strokeColor=#ff0000;" parent="1" vertex="1">
          <mxGeometry x="440" y="125" width="120" height="40" as="geometry" />
        </mxCell>
        <mxCell id="mKRsOx1qspEqzQchLwDA-2" value="" style="edgeStyle=orthogonalEdgeStyle;html=1;verticalAlign=bottom;endArrow=open;endSize=8;strokeColor=#ff0000;dashed=1;fontColor=#000000;entryX=0.5;entryY=0;entryDx=0;entryDy=0;" parent="1" source="mKRsOx1qspEqzQchLwDA-1" target="mKRsOx1qspEqzQchLwDA-26" edge="1">
          <mxGeometry relative="1" as="geometry">
            <mxPoint x="600" y="145" as="targetPoint" />
            <Array as="points">
              <mxPoint x="620" y="145" />
              <mxPoint x="620" y="420" />
              <mxPoint x="300" y="420" />
            </Array>
          </mxGeometry>
        </mxCell>
        <mxCell id="mKRsOx1qspEqzQchLwDA-10" value="&lt;font color=&quot;#000000&quot;&gt;is their any queue &lt;br&gt;item&amp;nbsp;with an age above the specified threshold&lt;br&gt;&lt;/font&gt;" style="rhombus;whiteSpace=wrap;html=1;fillColor=#ffffc0;strokeColor=#ff0000;" parent="1" vertex="1">
          <mxGeometry x="220" y="210" width="160" height="90" as="geometry" />
        </mxCell>
        <mxCell id="mKRsOx1qspEqzQchLwDA-14" value="sort the ready queue by age &lt;br&gt;from high to low, then by burst time from high to low" style="rounded=1;whiteSpace=wrap;html=1;arcSize=40;fontColor=#000000;fillColor=#ffffc0;strokeColor=#ff0000;" parent="1" vertex="1">
          <mxGeometry x="440" y="235" width="160" height="40" as="geometry" />
        </mxCell>
        <mxCell id="mKRsOx1qspEqzQchLwDA-18" value="yes" style="edgeStyle=orthogonalEdgeStyle;html=1;align=left;verticalAlign=top;endArrow=open;endSize=8;strokeColor=#ff0000;dashed=1;" parent="1" source="mKRsOx1qspEqzQchLwDA-10" target="mKRsOx1qspEqzQchLwDA-14" edge="1">
          <mxGeometry x="-1" y="5" relative="1" as="geometry">
            <mxPoint x="430" y="254.9999999999999" as="targetPoint" />
            <mxPoint x="390" y="145" as="sourcePoint" />
            <mxPoint as="offset" />
          </mxGeometry>
        </mxCell>
        <mxCell id="mKRsOx1qspEqzQchLwDA-24" value="sort ready queue by process burst time from low to high" style="rounded=1;whiteSpace=wrap;html=1;arcSize=40;fontColor=#000000;fillColor=#ffffc0;strokeColor=#ff0000;" parent="1" vertex="1">
          <mxGeometry x="40" y="235" width="120" height="40" as="geometry" />
        </mxCell>
        <mxCell id="mKRsOx1qspEqzQchLwDA-25" value="return first item from ready queue" style="rounded=1;whiteSpace=wrap;html=1;arcSize=40;fontColor=#000000;fillColor=#ffffc0;strokeColor=#ff0000;" parent="1" vertex="1">
          <mxGeometry x="240" y="360" width="120" height="40" as="geometry" />
        </mxCell>
        <mxCell id="mKRsOx1qspEqzQchLwDA-26" value="" style="ellipse;html=1;shape=endState;fillColor=#000000;strokeColor=#ff0000;fontColor=#000000;" parent="1" vertex="1">
          <mxGeometry x="280" y="460" width="40" height="40" as="geometry" />
        </mxCell>
        <mxCell id="mKRsOx1qspEqzQchLwDA-27" value="" style="edgeStyle=orthogonalEdgeStyle;html=1;verticalAlign=bottom;endArrow=open;endSize=8;strokeColor=#ff0000;dashed=1;fontColor=#000000;" parent="1" source="mKRsOx1qspEqzQchLwDA-24" target="mKRsOx1qspEqzQchLwDA-25" edge="1">
          <mxGeometry relative="1" as="geometry">
            <mxPoint x="630" y="455" as="targetPoint" />
            <mxPoint x="590" y="455" as="sourcePoint" />
            <Array as="points">
              <mxPoint x="100" y="320" />
              <mxPoint x="300" y="320" />
            </Array>
          </mxGeometry>
        </mxCell>
        <mxCell id="mKRsOx1qspEqzQchLwDA-28" value="" style="edgeStyle=orthogonalEdgeStyle;html=1;verticalAlign=bottom;endArrow=open;endSize=8;strokeColor=#ff0000;dashed=1;fontColor=#000000;" parent="1" source="mKRsOx1qspEqzQchLwDA-25" target="mKRsOx1qspEqzQchLwDA-26" edge="1">
          <mxGeometry relative="1" as="geometry">
            <mxPoint x="630" y="555" as="targetPoint" />
            <mxPoint x="590" y="555" as="sourcePoint" />
          </mxGeometry>
        </mxCell>
        <mxCell id="mKRsOx1qspEqzQchLwDA-29" value="no" style="edgeStyle=orthogonalEdgeStyle;html=1;align=left;verticalAlign=bottom;endArrow=open;endSize=8;strokeColor=#ff0000;dashed=1;" parent="1" source="mKRsOx1qspEqzQchLwDA-10" target="mKRsOx1qspEqzQchLwDA-24" edge="1">
          <mxGeometry relative="1" as="geometry">
            <mxPoint x="320" y="620" as="targetPoint" />
            <mxPoint x="320" y="580" as="sourcePoint" />
          </mxGeometry>
        </mxCell>
        <mxCell id="mKRsOx1qspEqzQchLwDA-30" value="" style="edgeStyle=orthogonalEdgeStyle;html=1;verticalAlign=bottom;endArrow=open;endSize=8;strokeColor=#ff0000;dashed=1;fontColor=#000000;" parent="1" source="mKRsOx1qspEqzQchLwDA-14" target="mKRsOx1qspEqzQchLwDA-25" edge="1">
          <mxGeometry relative="1" as="geometry">
            <mxPoint x="310.0000000000002" y="369.9999999999999" as="targetPoint" />
            <mxPoint x="110.00000000000023" y="284.9999999999999" as="sourcePoint" />
            <Array as="points">
              <mxPoint x="500" y="320" />
              <mxPoint x="300" y="320" />
            </Array>
          </mxGeometry>
        </mxCell>
      </root>
    </mxGraphModel>
  </diagram>
</mxfile>
